<?xml version="1.0" encoding="UTF-8" standalone="no"?>
<!-- Created with Inkscape (http://www.inkscape.org/) -->

<svg
   version="1.1"
   id="svg1"
   width="521.40021"
   height="397.35825"
   viewBox="0 0 521.40021 397.35825"
   sodipodi:docname="Logo.svg"
   inkscape:version="1.3.2 (091e20e, 2023-11-25, custom)"
   xmlns:inkscape="http://www.inkscape.org/namespaces/inkscape"
   xmlns:sodipodi="http://sodipodi.sourceforge.net/DTD/sodipodi-0.dtd"
   xmlns="http://www.w3.org/2000/svg"
   xmlns:svg="http://www.w3.org/2000/svg">
  <defs
     id="defs1">
    <inkscape:path-effect
       effect="fillet_chamfer"
       id="path-effect114"
       is_visible="true"
       lpeversion="1"
       nodesatellites_param="F,0,0,1,0,0,0,1 @ F,0,0,1,0,0,0,1 @ F,0,0,1,0,0,0,1 @ F,0,0,1,0,0,0,1 @ F,0,0,1,0,0,0,1 @ F,0,0,1,0,0,0,1 @ F,0,0,1,0,0,0,1 @ F,0,0,1,0,0,0,1 @ F,0,0,1,0,0,0,1 @ F,0,0,1,0,0,0,1 @ F,0,0,1,0,0,0,1 @ F,0,0,1,0,0,0,1 @ F,0,0,1,0,0,0,1 @ F,0,0,1,0,0,0,1 @ F,0,0,1,0,0,0,1 @ F,0,0,1,0,0,0,1 @ F,0,0,1,0,0,0,1 @ F,0,0,1,0,0,0,1 @ F,0,0,1,0,0,0,1 @ F,0,0,1,0,0,0,1 @ F,0,0,1,0,0,0,1 @ F,0,0,1,0,0,0,1 @ F,0,0,1,0,0,0,1 @ F,0,0,1,0,0,0,1 @ F,0,0,1,0,0,0,1 @ F,0,0,1,0,0,0,1 @ F,0,0,1,0,0,0,1 @ F,0,0,1,0,0,0,1 @ F,0,0,1,0,0,0,1 @ F,0,0,1,0,0,0,1 @ F,0,0,1,0,0,0,1 @ F,0,0,1,0,0,0,1 @ F,0,0,1,0,0,0,1 @ F,0,0,1,0,0,0,1 @ F,0,0,1,0,0,0,1 @ F,0,0,1,0,0,0,1 @ F,0,0,1,0,0,0,1 @ F,0,0,1,0,0,0,1 @ F,0,0,1,0,0,0,1 @ F,0,0,1,0,0,0,1 @ F,0,0,1,0,0,0,1 @ F,0,0,1,0,0,0,1 @ F,0,0,1,0,0,0,1 @ F,0,0,1,0,0,0,1 @ F,0,0,1,0,0,0,1 @ F,0,0,1,0,0,0,1 | F,0,0,1,0,0,0,1 @ F,0,0,1,0,0,0,1 @ F,0,0,1,0,0,0,1 @ F,0,0,1,0,0,0,1 @ F,0,0,1,0,0,0,1 @ F,0,0,1,0,0,0,1 @ F,0,0,1,0,0,0,1 @ F,0,0,1,0,0,0,1 @ F,0,0,1,0,0,0,1 @ F,0,0,1,0,0,0,1 @ F,0,0,1,0,0,0,1 @ F,0,0,1,0,0,0,1 @ F,0,0,1,0,0,0,1 @ F,0,0,1,0,0,0,1 @ F,0,0,1,0,0,0,1 @ F,0,0,1,0,0,0,1 @ F,0,0,1,0,0,0,1 @ F,0,0,1,0,0,0,1 @ F,0,0,1,0,0,0,1 @ F,0,0,1,0,0,0,1 @ F,0,0,1,0,0,0,1 @ F,0,0,1,0,0,0,1 @ F,0,0,1,0,0,0,1 @ F,0,0,1,0,0,0,1 @ F,0,0,1,0,0,0,1 @ F,0,0,1,0,0,0,1 @ F,0,0,1,0,0,0,1 @ F,0,0,1,0,0,0,1 @ F,0,0,1,0,0,0,1 | F,0,0,1,0,0,0,1 @ F,0,0,1,0,0,0,1 @ F,0,0,1,0,0,0,1 @ F,0,0,1,0,0,0,1 @ F,0,0,1,0,0,0,1 @ F,0,0,1,0,0,0,1 @ F,0,0,1,0,0,0,1 @ F,0,0,1,0,0,0,1 @ F,0,0,1,0,0,0,1 @ F,0,0,1,0,0,0,1 @ F,0,0,1,0,0,0,1 @ F,0,0,1,0,0,0,1 @ F,0,0,1,0,0,0,1 @ F,0,0,1,0,0,0,1 @ F,0,0,1,0,0,0,1 @ F,0,0,1,0,0,0,1 @ F,0,0,1,0,0,0,1 @ F,0,0,1,0,0,0,1 @ F,0,0,1,0,0,0,1 @ F,0,0,1,0,0,0,1 @ F,0,0,1,0,0,0,1 @ F,0,0,1,0,0,0,1 @ F,0,0,1,0,0,0,1 @ F,0,0,1,0,0,0,1 @ F,0,0,1,0,0,0,1 @ F,0,0,1,0,0,0,1 @ F,0,0,1,0,0,0,1 @ F,0,0,1,0,0,0,1 @ F,0,0,1,0,0,0,1 @ F,0,0,1,0,0,0,1 @ F,0,0,1,0,0,0,1 @ F,0,0,1,0,0,0,1 @ F,0,0,1,0,0,0,1 @ F,0,0,1,0,0,0,1 @ F,0,0,1,0,0,0,1 @ F,0,0,1,0,0,0,1 @ F,0,0,1,0,0,0,1 | F,0,0,1,0,0,0,1 @ F,0,0,1,0,0,0,1 @ F,0,0,1,0,0,0,1 @ F,0,0,1,0,0,0,1 @ F,0,0,1,0,0,0,1 @ F,0,0,1,0,0,0,1 @ F,0,0,1,0,0,0,1 @ F,0,0,1,0,0,0,1 | F,0,0,1,0,0,0,1 @ F,0,0,1,0,0,0,1 @ F,0,0,1,0,0,0,1 @ F,0,0,1,0,0,0,1 @ F,0,0,1,0,0,0,1 @ F,0,0,1,0,0,0,1 | F,0,0,1,0,0,0,1 @ F,0,0,1,0,0,0,1 @ F,0,0,1,0,0,0,1 @ F,0,0,1,0,0,0,1 @ F,0,0,1,0,0,0,1 @ F,0,0,1,0,0,0,1 @ F,0,0,1,0,0,0,1 @ F,0,0,1,0,0,0,1 @ F,0,0,1,0,0,0,1 @ F,0,0,1,0,0,0,1 @ F,0,0,1,0,0,0,1 | F,0,0,1,0,0,0,1 @ F,0,0,1,0,0,0,1 @ F,0,0,1,0,0,0,1 @ F,0,0,1,0,0,0,1 @ F,0,0,1,0,0,0,1 @ F,0,0,1,0,0,0,1 @ F,0,0,1,0,0,0,1 @ F,0,0,1,0,0,0,1 @ F,0,0,1,0,0,0,1 @ F,0,0,1,0,0,0,1 | F,0,0,1,0,0,0,1 @ F,0,0,1,0,0,0,1 @ F,0,0,1,0,0,0,1 @ F,0,0,1,0,0,0,1 @ F,0,0,1,0,0,0,1 @ F,0,0,1,0,0,0,1 @ F,0,0,1,0,0,0,1 @ F,0,0,1,0,0,0,1 | F,0,0,1,0,0,0,1 @ F,0,0,1,0,0,0,1 @ F,0,0,1,0,0,0,1 @ F,0,0,1,0,0,0,1 @ F,0,0,1,0,0,0,1 @ F,0,0,1,0,0,0,1 @ F,0,0,1,0,0,0,1 @ F,0,0,1,0,0,0,1 @ F,0,0,1,0,0,0,1 @ F,0,0,1,0,0,0,1 @ F,0,0,1,0,0,0,1 @ F,0,0,1,0,0,0,1 @ F,0,0,1,0,0,0,1 @ F,0,0,1,0,0,0,1 @ F,0,0,1,0,0,0,1 @ F,0,0,1,0,0,0,1 @ F,0,0,1,0,0,0,1 @ F,0,0,1,0,0,0,1 @ F,0,0,1,0,0,0,1 @ F,0,0,1,0,0,0,1 @ F,0,0,1,0,0,0,1 @ F,0,0,1,0,0,0,1 @ F,0,0,1,0,0,0,1 @ F,0,0,1,0,0,0,1 @ F,0,0,1,0,0,0,1 @ F,0,0,1,0,0,0,1 @ F,0,0,1,0,0,0,1 @ F,0,0,1,0,0,0,1 @ F,0,0,1,0,0,0,1 @ F,0,0,1,0,0,0,1 | F,0,0,1,0,0,0,1 @ F,0,0,1,0,0,0,1 @ F,0,0,1,0,0,0,1 @ F,0,0,1,0,0,0,1 @ F,0,0,1,0,0,0,1 @ F,0,0,1,0,0,0,1 @ F,0,0,1,0,0,0,1 @ F,0,0,1,0,0,0,1 @ F,0,0,1,0,0,0,1 @ F,0,0,1,0,0,0,1 @ F,0,0,1,0,0,0,1 @ F,0,0,1,0,0,0,1 @ F,0,0,1,0,0,0,1 @ F,0,0,1,0,0,0,1 @ F,0,0,1,0,0,0,1 @ F,0,0,1,0,0,0,1 @ F,0,0,1,0,0,0,1 @ F,0,0,1,0,0,0,1 @ F,0,0,1,0,0,0,1 @ F,0,0,1,0,0,0,1 @ F,0,0,1,0,0,0,1 @ F,0,0,1,0,0,0,1 @ F,0,0,1,0,0,0,1 @ F,0,0,1,0,0,0,1 @ F,0,0,1,0,0,0,1 @ F,0,0,1,0,0,0,1 @ F,0,0,1,0,0,0,1 @ F,0,0,1,0,0,0,1 @ F,0,0,1,0,0,0,1 @ F,0,0,1,0,0,0,1 @ F,0,0,1,0,0,0,1 @ F,0,0,1,0,0,0,1 @ F,0,0,1,0,0,0,1 @ F,0,0,1,0,0,0,1 @ F,0,0,1,0,0,0,1 @ F,0,0,1,0,0,0,1 @ F,0,0,1,0,0,0,1 @ F,0,0,1,0,0,0,1 @ F,0,0,1,0,0,0,1 @ F,0,0,1,0,0,0,1 @ F,0,0,1,0,0,0,1 @ F,0,0,1,0,0,0,1 @ F,0,0,1,0,0,0,1 @ F,0,0,1,0,0,0,1 @ F,0,0,1,0,0,0,1 @ F,0,0,1,0,0,0,1 @ F,0,0,1,0,0,0,1 @ F,0,0,1,0,0,0,1 @ F,0,0,1,0,0,0,1 @ F,0,0,1,0,0,0,1 @ F,0,0,1,0,0,0,1 @ F,0,0,1,0,0,0,1 @ F,0,0,1,0,0,0,1 @ F,0,0,1,0,0,0,1 @ F,0,0,1,0,0,0,1 @ F,0,0,1,0,0,0,1 | F,0,0,1,0,0,0,1 @ F,0,0,1,0,0,0,1 @ F,0,0,1,0,0,0,1 @ F,0,0,1,0,0,0,1 @ F,0,0,1,0,0,0,1 @ F,0,0,1,0,0,0,1 @ F,0,0,1,0,0,0,1 @ F,0,0,1,0,0,0,1 @ F,0,0,1,0,0,0,1 @ F,0,0,1,0,0,0,1 @ F,0,0,1,0,0,0,1 @ F,0,0,1,0,0,0,1 @ F,0,0,1,0,0,0,1 @ F,0,0,1,0,0,0,1 @ F,0,0,1,0,0,0,1 @ F,0,0,1,0,0,0,1 @ F,0,0,1,0,0,0,1 @ F,0,0,1,0,0,0,1 @ F,0,0,1,0,0,0,1 @ F,0,0,1,0,0,0,1 @ F,0,0,1,0,0,0,1 @ F,0,0,1,0,0,0,1 @ F,0,0,1,0,0,0,1 @ F,0,0,1,0,0,0,1 @ F,0,0,1,0,0,0,1 @ F,0,0,1,0,0,0,1 @ F,0,0,1,0,0,0,1 @ F,0,0,1,0,0,0,1 @ F,0,0,1,0,0,0,1 @ F,0,0,1,0,0,0,1 @ F,0,0,1,0,0,0,1 @ F,0,0,1,0,0,0,1 @ F,0,0,1,0,0,0,1 @ F,0,0,1,0,0,0,1 @ F,0,0,1,0,0,0,1 @ F,0,0,1,0,0,0,1 @ F,0,0,1,0,0,0,1 @ F,0,0,1,0,0,0,1 @ F,0,0,1,0,0,0,1 @ F,0,0,1,0,0,0,1 @ F,0,0,1,0,0,0,1 @ F,0,0,1,0,0,0,1 @ F,0,0,1,0,0,0,1 @ F,0,0,1,0,0,0,1 | F,0,0,1,0,0,0,1 @ F,0,0,1,0,0,0,1 @ F,0,0,1,0,0,0,1 @ F,0,0,1,0,0,0,1 @ F,0,0,1,0,0,0,1 @ F,0,0,1,0,0,0,1 @ F,0,0,1,0,0,0,1 @ F,0,0,1,0,0,0,1 @ F,0,0,1,0,0,0,1 @ F,0,0,1,0,0,0,1 @ F,0,0,1,0,0,0,1 @ F,0,0,1,0,0,0,1 @ F,0,0,1,0,0,0,1 @ F,0,0,1,0,0,0,1 @ F,0,0,1,0,0,0,1 @ F,0,0,1,0,0,0,1 @ F,0,0,1,0,0,0,1 @ F,0,0,1,0,0,0,1 @ F,0,0,1,0,0,0,1 @ F,0,0,1,0,0,0,1 @ F,0,0,1,0,0,0,1 @ F,0,0,1,0,0,0,1 @ F,0,0,1,0,0,0,1 @ F,0,0,1,0,0,0,1 @ F,0,0,1,0,0,0,1 @ F,0,0,1,0,0,0,1 | F,0,0,1,0,0,0,1 @ F,0,0,1,0,0,0,1 @ F,0,0,1,0,0,0,1 @ F,0,0,1,0,0,0,1 @ F,0,0,1,0,0,0,1 @ F,0,0,1,0,0,0,1 @ F,0,0,1,0,0,0,1 @ F,0,0,1,0,0,0,1 @ F,0,0,1,0,0,0,1 @ F,0,0,1,0,0,0,1 @ F,0,0,1,0,0,0,1 @ F,0,0,1,0,0,0,1 @ F,0,0,1,0,0,0,1 @ F,0,0,1,0,0,0,1 @ F,0,0,1,0,0,0,1 @ F,0,0,1,0,0,0,1 @ F,0,0,1,0,0,0,1 @ F,0,0,1,0,0,0,1 @ F,0,0,1,0,0,0,1 @ F,0,0,1,0,0,0,1 @ F,0,0,1,0,0,0,1 @ F,0,0,1,0,0,0,1 @ F,0,0,1,0,0,0,1 @ F,0,0,1,0,0,0,1 @ F,0,0,1,0,0,0,1 @ F,0,0,1,0,0,0,1 @ F,0,0,1,0,0,0,1 @ F,0,0,1,0,0,0,1 @ F,0,0,1,0,0,0,1 @ F,0,0,1,0,0,0,1 @ F,0,0,1,0,0,0,1 @ F,0,0,1,0,0,0,1 @ F,0,0,1,0,0,0,1 @ F,0,0,1,0,0,0,1 @ F,0,0,1,0,0,0,1 @ F,0,0,1,0,0,0,1 @ F,0,0,1,0,0,0,1 @ F,0,0,1,0,0,0,1 @ F,0,0,1,0,0,0,1 @ F,0,0,1,0,0,0,1 @ F,0,0,1,0,0,0,1 @ F,0,0,1,0,0,0,1 @ F,0,0,1,0,0,0,1 @ F,0,0,1,0,0,0,1 | F,0,0,1,0,0,0,1 @ F,0,0,1,0,0,0,1 @ F,0,0,1,0,0,0,1 @ F,0,0,1,0,0,0,1 @ F,0,0,1,0,0,0,1 @ F,0,0,1,0,0,0,1 @ F,0,0,1,0,0,0,1 @ F,0,0,1,0,0,0,1 @ F,0,0,1,0,0,0,1 @ F,0,0,1,0,0,0,1 @ F,0,0,1,0,0,0,1 @ F,0,0,1,0,0,0,1 @ F,0,0,1,0,0,0,1 @ F,0,0,1,0,0,0,1 @ F,0,0,1,0,0,0,1 | F,0,0,1,0,0,0,1 @ F,0,0,1,0,0,0,1 @ F,0,0,1,0,0,0,1 @ F,0,0,1,0,0,0,1 @ F,0,0,1,0,0,0,1 @ F,0,0,1,0,0,0,1 @ F,0,0,1,0,0,0,1 @ F,0,0,1,0,0,0,1 @ F,0,0,1,0,0,0,1 @ F,0,0,1,0,0,0,1 @ F,0,0,1,0,0,0,1 @ F,0,0,1,0,0,0,1 @ F,0,0,1,0,0,0,1 @ F,0,0,1,0,0,0,1 @ F,0,0,1,0,0,0,1 @ F,0,0,1,0,0,0,1 @ F,0,0,1,0,0,0,1 @ F,0,0,1,0,0,0,1 @ F,0,0,1,0,0,0,1 @ F,0,0,1,0,0,0,1 @ F,0,0,1,0,0,0,1 @ F,0,0,1,0,0,0,1 @ F,0,0,1,0,0,0,1 @ F,0,0,1,0,0,0,1 @ F,0,0,1,0,0,0,1 @ F,0,0,1,0,0,0,1 @ F,0,0,1,0,0,0,1 @ F,0,0,1,0,0,0,1 @ F,0,0,1,0,0,0,1 @ F,0,0,1,0,0,0,1 @ F,0,0,1,0,0,0,1 @ F,0,0,1,0,0,0,1 @ F,0,0,1,0,0,0,1 @ F,0,0,1,0,0,0,1 @ F,0,0,1,0,0,0,1 @ F,0,0,1,0,0,0,1 @ F,0,0,1,0,0,0,1 @ F,0,0,1,0,0,0,1 @ F,0,0,1,0,0,0,1 @ F,0,0,1,0,0,0,1 @ F,0,0,1,0,0,0,1 @ F,0,0,1,0,0,0,1 @ F,0,0,1,0,0,0,1 @ F,0,0,1,0,0,0,1 @ F,0,0,1,0,0,0,1 @ F,0,0,1,0,0,0,1 @ F,0,0,1,0,0,0,1 @ F,0,0,1,0,0,0,1 @ F,0,0,1,0,0,0,1 @ F,0,0,1,0,0,0,1 @ F,0,0,1,0,0,0,1 @ F,0,0,1,0,0,0,1 @ F,0,0,1,0,0,0,1 @ F,0,0,1,0,0,0,1 @ F,0,0,1,0,0,0,1 @ F,0,0,1,0,0,0,1 @ F,0,0,1,0,0,0,1 | F,0,0,1,0,0,0,1 @ F,0,0,1,0,0,0,1 @ F,0,0,1,0,0,0,1 @ F,0,0,1,0,0,0,1 @ F,0,0,1,0,0,0,1 @ F,0,0,1,0,0,0,1 @ F,0,0,1,0,0,0,1 @ F,0,0,1,0,0,0,1 | F,0,0,1,0,0,0,1 @ F,0,0,1,0,0,0,1 @ F,0,0,1,0,0,0,1 @ F,0,0,1,0,0,0,1 @ F,0,0,1,0,0,0,1 @ F,0,0,1,0,0,0,1 @ F,0,0,1,0,0,0,1 @ F,0,0,1,0,0,0,1 @ F,0,0,1,0,0,0,1 @ F,0,0,1,0,0,0,1 | F,0,0,1,0,0,0,1 @ F,0,0,1,0,0,0,1 @ F,0,0,1,0,0,0,1 @ F,0,0,1,0,0,0,1 @ F,0,0,1,0,0,0,1 @ F,0,0,1,0,0,0,1 @ F,0,0,1,0,0,0,1 @ F,0,0,1,0,0,0,1 @ F,0,0,1,0,0,0,1 | F,0,0,1,0,0,0,1 @ F,0,0,1,0,0,0,1 @ F,0,0,1,0,0,0,1 @ F,0,0,1,0,0,0,1 @ F,0,0,1,0,0,0,1 @ F,0,0,1,0,0,0,1 | F,0,0,1,0,0,0,1 @ F,0,0,1,0,0,0,1 @ F,0,0,1,0,0,0,1 @ F,0,0,1,0,0,0,1 @ F,0,0,1,0,0,0,1 @ F,0,0,1,0,0,0,1 @ F,0,0,1,0,0,0,1 @ F,0,0,1,0,0,0,1 @ F,0,0,1,0,0,0,1"
       radius="0"
       unit="px"
       method="auto"
       mode="F"
       chamfer_steps="1"
       flexible="false"
       use_knot_distance="true"
       apply_no_radius="true"
       apply_with_radius="true"
       only_selected="false"
       hide_knots="false" />
    <inkscape:path-effect
       effect="fillet_chamfer"
       id="path-effect112"
       is_visible="true"
       lpeversion="1"
       nodesatellites_param="F,0,0,1,0,0,0,1 @ F,0,0,1,0,0,0,1 @ F,0,0,1,0,0,0,1 @ F,0,0,1,0,0,0,1 @ F,0,0,1,0,0,0,1 @ F,0,0,1,0,0,0,1 @ F,0,0,1,0,0,0,1 @ F,0,0,1,0,0,0,1 @ F,0,0,1,0,0,0,1 @ F,0,0,1,0,0,0,1 @ F,0,0,1,0,0,0,1 @ F,0,0,1,0,0,0,1 @ F,0,0,1,0,0,0,1 @ F,0,0,1,0,0,0,1 @ F,0,0,1,0,0,0,1 @ F,0,0,1,0,0,0,1 @ F,0,0,1,0,0,0,1 @ F,0,0,1,0,0,0,1 @ F,0,0,1,0,0,0,1 @ F,0,0,1,0,0,0,1 @ F,0,0,1,0,0,0,1 @ F,0,0,1,0,0,0,1 @ F,0,0,1,0,0,0,1 @ F,0,0,1,0,0,0,1 @ F,0,0,1,0,0,0,1 @ F,0,0,1,0,0,0,1 @ F,0,0,1,0,0,0,1 @ F,0,0,1,0,0,0,1 @ F,0,0,1,0,0,0,1 @ F,0,0,1,0,0,0,1 @ F,0,0,1,0,0,0,1 @ F,0,0,1,0,0,0,1 @ F,0,0,1,0,0,0,1 @ F,0,0,1,0,0,0,1 @ F,0,0,1,0,0,0,1 @ F,0,0,1,0,0,0,1 @ F,0,0,1,0,0,0,1 @ F,0,0,1,0,0,0,1 @ F,0,0,1,0,0,0,1 @ F,0,0,1,0,0,0,1 @ F,0,0,1,0,0,0,1 @ F,0,0,1,0,0,0,1 @ F,0,0,1,0,0,0,1 @ F,0,0,1,0,0,0,1 @ F,0,0,1,0,0,0,1 @ F,0,0,1,0,0,0,1 | F,0,0,1,0,0,0,1 @ F,0,0,1,0,0,0,1 @ F,0,0,1,0,0,0,1 @ F,0,0,1,0,0,0,1 @ F,0,0,1,0,0,0,1 @ F,0,0,1,0,0,0,1 @ F,0,0,1,0,0,0,1 @ F,0,0,1,0,0,0,1 @ F,0,0,1,0,0,0,1 @ F,0,0,1,0,0,0,1 @ F,0,0,1,0,0,0,1 @ F,0,0,1,0,0,0,1 @ F,0,0,1,0,0,0,1 @ F,0,0,1,0,0,0,1 @ F,0,0,1,0,0,0,1 @ F,0,0,1,0,0,0,1 @ F,0,0,1,0,0,0,1 @ F,0,0,1,0,0,0,1 @ F,0,0,1,0,0,0,1 @ F,0,0,1,0,0,0,1 @ F,0,0,1,0,0,0,1 @ F,0,0,1,0,0,0,1 @ F,0,0,1,0,0,0,1 @ F,0,0,1,0,0,0,1 @ F,0,0,1,0,0,0,1 @ F,0,0,1,0,0,0,1 @ F,0,0,1,0,0,0,1 @ F,0,0,1,0,0,0,1 @ F,0,0,1,0,0,0,1 | F,0,0,1,0,0,0,1 @ F,0,0,1,0,0,0,1 @ F,0,0,1,0,0,0,1 @ F,0,0,1,0,0,0,1 @ F,0,0,1,0,0,0,1 @ F,0,0,1,0,0,0,1 @ F,0,0,1,0,0,0,1 @ F,0,0,1,0,0,0,1 @ F,0,0,1,0,0,0,1 @ F,0,0,1,0,0,0,1 @ F,0,0,1,0,0,0,1 @ F,0,0,1,0,0,0,1 @ F,0,0,1,0,0,0,1 @ F,0,0,1,0,0,0,1 @ F,0,0,1,0,0,0,1 @ F,0,0,1,0,0,0,1 @ F,0,0,1,0,0,0,1 @ F,0,0,1,0,0,0,1 @ F,0,0,1,0,0,0,1 @ F,0,0,1,0,0,0,1 @ F,0,0,1,0,0,0,1 @ F,0,0,1,0,0,0,1 @ F,0,0,1,0,0,0,1 @ F,0,0,1,0,0,0,1 @ F,0,0,1,0,0,0,1 @ F,0,0,1,0,0,0,1 @ F,0,0,1,0,0,0,1 @ F,0,0,1,0,0,0,1 @ F,0,0,1,0,0,0,1 @ F,0,0,1,0,0,0,1 @ F,0,0,1,0,0,0,1 @ F,0,0,1,0,0,0,1 @ F,0,0,1,0,0,0,1 @ F,0,0,1,0,0,0,1 @ F,0,0,1,0,0,0,1 @ F,0,0,1,0,0,0,1 @ F,0,0,1,0,0,0,1 | F,0,0,1,0,0,0,1 @ F,0,0,1,0,0,0,1 @ F,0,0,1,0,0,0,1 @ F,0,0,1,0,0,0,1 @ F,0,0,1,0,0,0,1 @ F,0,0,1,0,0,0,1 @ F,0,0,1,0,0,0,1 @ F,0,0,1,0,0,0,1 | F,0,0,1,0,0,0,1 @ F,0,0,1,0,0,0,1 @ F,0,0,1,0,0,0,1 @ F,0,0,1,0,0,0,1 @ F,0,0,1,0,0,0,1 @ F,0,0,1,0,0,0,1 | F,0,0,1,0,0,0,1 @ F,0,0,1,0,0,0,1 @ F,0,0,1,0,0,0,1 @ F,0,0,1,0,0,0,1 @ F,0,0,1,0,0,0,1 @ F,0,0,1,0,0,0,1 @ F,0,0,1,0,0,0,1 @ F,0,0,1,0,0,0,1 @ F,0,0,1,0,0,0,1 @ F,0,0,1,0,0,0,1 @ F,0,0,1,0,0,0,1 | F,0,0,1,0,0,0,1 @ F,0,0,1,0,0,0,1 @ F,0,0,1,0,0,0,1 @ F,0,0,1,0,0,0,1 @ F,0,0,1,0,0,0,1 @ F,0,0,1,0,0,0,1 @ F,0,0,1,0,0,0,1 @ F,0,0,1,0,0,0,1 @ F,0,0,1,0,0,0,1 @ F,0,0,1,0,0,0,1 | F,0,0,1,0,0,0,1 @ F,0,0,1,0,0,0,1 @ F,0,0,1,0,0,0,1 @ F,0,0,1,0,0,0,1 @ F,0,0,1,0,0,0,1 @ F,0,0,1,0,0,0,1 @ F,0,0,1,0,0,0,1 @ F,0,0,1,0,0,0,1 | F,0,0,1,0,0,0,1 @ F,0,0,1,0,0,0,1 @ F,0,0,1,0,0,0,1 @ F,0,0,1,0,0,0,1 @ F,0,0,1,0,0,0,1 @ F,0,0,1,0,0,0,1 @ F,0,0,1,0,0,0,1 @ F,0,0,1,0,0,0,1 @ F,0,0,1,0,0,0,1 @ F,0,0,1,0,0,0,1 @ F,0,0,1,0,0,0,1 @ F,0,0,1,0,0,0,1 @ F,0,0,1,0,0,0,1 @ F,0,0,1,0,0,0,1 @ F,0,0,1,0,0,0,1 @ F,0,0,1,0,0,0,1 @ F,0,0,1,0,0,0,1 @ F,0,0,1,0,0,0,1 @ F,0,0,1,0,0,0,1 @ F,0,0,1,0,0,0,1 @ F,0,0,1,0,0,0,1 @ F,0,0,1,0,0,0,1 @ F,0,0,1,0,0,0,1 @ F,0,0,1,0,0,0,1 @ F,0,0,1,0,0,0,1 @ F,0,0,1,0,0,0,1 @ F,0,0,1,0,0,0,1 @ F,0,0,1,0,0,0,1 @ F,0,0,1,0,0,0,1 @ F,0,0,1,0,0,0,1 | F,0,0,1,0,0,0,1 @ F,0,0,1,0,0,0,1 @ F,0,0,1,0,0,0,1 @ F,0,0,1,0,0,0,1 @ F,0,0,1,0,0,0,1 @ F,0,0,1,0,0,0,1 @ F,0,0,1,0,0,0,1 @ F,0,0,1,0,0,0,1 @ F,0,0,1,0,0,0,1 @ F,0,0,1,0,0,0,1 @ F,0,0,1,0,0,0,1 @ F,0,0,1,0,0,0,1 @ F,0,0,1,0,0,0,1 @ F,0,0,1,0,0,0,1 @ F,0,0,1,0,0,0,1 @ F,0,0,1,0,0,0,1 @ F,0,0,1,0,0,0,1 @ F,0,0,1,0,0,0,1 @ F,0,0,1,0,0,0,1 @ F,0,0,1,0,0,0,1 @ F,0,0,1,0,0,0,1 @ F,0,0,1,0,0,0,1 @ F,0,0,1,0,0,0,1 @ F,0,0,1,0,0,0,1 @ F,0,0,1,0,0,0,1 @ F,0,0,1,0,0,0,1 @ F,0,0,1,0,0,0,1 @ F,0,0,1,0,0,0,1 @ F,0,0,1,0,0,0,1 @ F,0,0,1,0,0,0,1 @ F,0,0,1,0,0,0,1 @ F,0,0,1,0,0,0,1 @ F,0,0,1,0,0,0,1 @ F,0,0,1,0,0,0,1 @ F,0,0,1,0,0,0,1 @ F,0,0,1,0,0,0,1 @ F,0,0,1,0,0,0,1 @ F,0,0,1,0,0,0,1 @ F,0,0,1,0,0,0,1 @ F,0,0,1,0,0,0,1 @ F,0,0,1,0,0,0,1 @ F,0,0,1,0,0,0,1 @ F,0,0,1,0,0,0,1 @ F,0,0,1,0,0,0,1 @ F,0,0,1,0,0,0,1 @ F,0,0,1,0,0,0,1 @ F,0,0,1,0,0,0,1 @ F,0,0,1,0,0,0,1 @ F,0,0,1,0,0,0,1 @ F,0,0,1,0,0,0,1 @ F,0,0,1,0,0,0,1 @ F,0,0,1,0,0,0,1 @ F,0,0,1,0,0,0,1 @ F,0,0,1,0,0,0,1 @ F,0,0,1,0,0,0,1 @ F,0,0,1,0,0,0,1 | F,0,0,1,0,0,0,1 @ F,0,0,1,0,0,0,1 @ F,0,0,1,0,0,0,1 @ F,0,0,1,0,0,0,1 @ F,0,0,1,0,0,0,1 @ F,0,0,1,0,0,0,1 @ F,0,0,1,0,0,0,1 @ F,0,0,1,0,0,0,1 @ F,0,0,1,0,0,0,1 @ F,0,0,1,0,0,0,1 @ F,0,0,1,0,0,0,1 @ F,0,0,1,0,0,0,1 @ F,0,0,1,0,0,0,1 @ F,0,0,1,0,0,0,1 @ F,0,0,1,0,0,0,1 @ F,0,0,1,0,0,0,1 @ F,0,0,1,0,0,0,1 @ F,0,0,1,0,0,0,1 @ F,0,0,1,0,0,0,1 @ F,0,0,1,0,0,0,1 @ F,0,0,1,0,0,0,1 @ F,0,0,1,0,0,0,1 @ F,0,0,1,0,0,0,1 @ F,0,0,1,0,0,0,1 @ F,0,0,1,0,0,0,1 @ F,0,0,1,0,0,0,1 @ F,0,0,1,0,0,0,1 @ F,0,0,1,0,0,0,1 @ F,0,0,1,0,0,0,1 @ F,0,0,1,0,0,0,1 @ F,0,0,1,0,0,0,1 @ F,0,0,1,0,0,0,1 @ F,0,0,1,0,0,0,1 @ F,0,0,1,0,0,0,1 @ F,0,0,1,0,0,0,1 @ F,0,0,1,0,0,0,1 @ F,0,0,1,0,0,0,1 @ F,0,0,1,0,0,0,1 @ F,0,0,1,0,0,0,1 @ F,0,0,1,0,0,0,1 @ F,0,0,1,0,0,0,1 @ F,0,0,1,0,0,0,1 @ F,0,0,1,0,0,0,1 @ F,0,0,1,0,0,0,1 | F,0,0,1,0,0,0,1 @ F,0,0,1,0,0,0,1 @ F,0,0,1,0,0,0,1 @ F,0,0,1,0,0,0,1 @ F,0,0,1,0,0,0,1 @ F,0,0,1,0,0,0,1 @ F,0,0,1,0,0,0,1 @ F,0,0,1,0,0,0,1 @ F,0,0,1,0,0,0,1 @ F,0,0,1,0,0,0,1 @ F,0,0,1,0,0,0,1 @ F,0,0,1,0,0,0,1 @ F,0,0,1,0,0,0,1 @ F,0,0,1,0,0,0,1 @ F,0,0,1,0,0,0,1 @ F,0,0,1,0,0,0,1 @ F,0,0,1,0,0,0,1 @ F,0,0,1,0,0,0,1 @ F,0,0,1,0,0,0,1 @ F,0,0,1,0,0,0,1 @ F,0,0,1,0,0,0,1 @ F,0,0,1,0,0,0,1 @ F,0,0,1,0,0,0,1 @ F,0,0,1,0,0,0,1 @ F,0,0,1,0,0,0,1 @ F,0,0,1,0,0,0,1 | F,0,0,1,0,0,0,1 @ F,0,0,1,0,0,0,1 @ F,0,0,1,0,0,0,1 @ F,0,0,1,0,0,0,1 @ F,0,0,1,0,0,0,1 @ F,0,0,1,0,0,0,1 @ F,0,0,1,0,0,0,1 @ F,0,0,1,0,0,0,1 @ F,0,0,1,0,0,0,1 @ F,0,0,1,0,0,0,1 @ F,0,0,1,0,0,0,1 @ F,0,0,1,0,0,0,1 @ F,0,0,1,0,0,0,1 @ F,0,0,1,0,0,0,1 @ F,0,0,1,0,0,0,1 @ F,0,0,1,0,0,0,1 @ F,0,0,1,0,0,0,1 @ F,0,0,1,0,0,0,1 @ F,0,0,1,0,0,0,1 @ F,0,0,1,0,0,0,1 @ F,0,0,1,0,0,0,1 @ F,0,0,1,0,0,0,1 @ F,0,0,1,0,0,0,1 @ F,0,0,1,0,0,0,1 @ F,0,0,1,0,0,0,1 @ F,0,0,1,0,0,0,1 @ F,0,0,1,0,0,0,1 @ F,0,0,1,0,0,0,1 @ F,0,0,1,0,0,0,1 @ F,0,0,1,0,0,0,1 @ F,0,0,1,0,0,0,1 @ F,0,0,1,0,0,0,1 @ F,0,0,1,0,0,0,1 @ F,0,0,1,0,0,0,1 @ F,0,0,1,0,0,0,1 @ F,0,0,1,0,0,0,1 @ F,0,0,1,0,0,0,1 @ F,0,0,1,0,0,0,1 @ F,0,0,1,0,0,0,1 @ F,0,0,1,0,0,0,1 @ F,0,0,1,0,0,0,1 @ F,0,0,1,0,0,0,1 @ F,0,0,1,0,0,0,1 @ F,0,0,1,0,0,0,1 | F,0,0,1,0,0,0,1 @ F,0,0,1,0,0,0,1 @ F,0,0,1,0,0,0,1 @ F,0,0,1,0,0,0,1 @ F,0,0,1,0,0,0,1 @ F,0,0,1,0,0,0,1 @ F,0,0,1,0,0,0,1 @ F,0,0,1,0,0,0,1 @ F,0,0,1,0,0,0,1 @ F,0,0,1,0,0,0,1 @ F,0,0,1,0,0,0,1 @ F,0,0,1,0,0,0,1 @ F,0,0,1,0,0,0,1 @ F,0,0,1,0,0,0,1 @ F,0,0,1,0,0,0,1 | F,0,0,1,0,0,0,1 @ F,0,0,1,0,0,0,1 @ F,0,0,1,0,0,0,1 @ F,0,0,1,0,0,0,1 @ F,0,0,1,0,0,0,1 @ F,0,0,1,0,0,0,1 @ F,0,0,1,0,0,0,1 @ F,0,0,1,0,0,0,1 @ F,0,0,1,0,0,0,1 @ F,0,0,1,0,0,0,1 @ F,0,0,1,0,0,0,1 @ F,0,0,1,0,0,0,1 @ F,0,0,1,0,0,0,1 @ F,0,0,1,0,0,0,1 @ F,0,0,1,0,0,0,1 @ F,0,0,1,0,0,0,1 @ F,0,0,1,0,0,0,1 @ F,0,0,1,0,0,0,1 @ F,0,0,1,0,0,0,1 @ F,0,0,1,0,0,0,1 @ F,0,0,1,0,0,0,1 @ F,0,0,1,0,0,0,1 @ F,0,0,1,0,0,0,1 @ F,0,0,1,0,0,0,1 @ F,0,0,1,0,0,0,1 @ F,0,0,1,0,0,0,1 @ F,0,0,1,0,0,0,1 @ F,0,0,1,0,0,0,1 @ F,0,0,1,0,0,0,1 @ F,0,0,1,0,0,0,1 @ F,0,0,1,0,0,0,1 @ F,0,0,1,0,0,0,1 @ F,0,0,1,0,0,0,1 @ F,0,0,1,0,0,0,1 @ F,0,0,1,0,0,0,1 @ F,0,0,1,0,0,0,1 @ F,0,0,1,0,0,0,1 @ F,0,0,1,0,0,0,1 @ F,0,0,1,0,0,0,1 @ F,0,0,1,0,0,0,1 @ F,0,0,1,0,0,0,1 @ F,0,0,1,0,0,0,1 @ F,0,0,1,0,0,0,1 @ F,0,0,1,0,0,0,1 @ F,0,0,1,0,0,0,1 @ F,0,0,1,0,0,0,1 @ F,0,0,1,0,0,0,1 @ F,0,0,1,0,0,0,1 @ F,0,0,1,0,0,0,1 @ F,0,0,1,0,0,0,1 @ F,0,0,1,0,0,0,1 @ F,0,0,1,0,0,0,1 @ F,0,0,1,0,0,0,1 @ F,0,0,1,0,0,0,1 @ F,0,0,1,0,0,0,1 @ F,0,0,1,0,0,0,1 @ F,0,0,1,0,0,0,1 | F,0,0,1,0,0,0,1 @ F,0,0,1,0,0,0,1 @ F,0,0,1,0,0,0,1 @ F,0,0,1,0,0,0,1 @ F,0,0,1,0,0,0,1 @ F,0,0,1,0,0,0,1 @ F,0,0,1,0,0,0,1 @ F,0,0,1,0,0,0,1 | F,0,0,1,0,0,0,1 @ F,0,0,1,0,0,0,1 @ F,0,0,1,0,0,0,1 @ F,0,0,1,0,0,0,1 @ F,0,0,1,0,0,0,1 @ F,0,0,1,0,0,0,1 @ F,0,0,1,0,0,0,1 @ F,0,0,1,0,0,0,1 @ F,0,0,1,0,0,0,1 @ F,0,0,1,0,0,0,1 | F,0,0,1,0,0,0,1 @ F,0,0,1,0,0,0,1 @ F,0,0,1,0,0,0,1 @ F,0,0,1,0,0,0,1 @ F,0,0,1,0,0,0,1 @ F,0,0,1,0,0,0,1 @ F,0,0,1,0,0,0,1 @ F,0,0,1,0,0,0,1 @ F,0,0,1,0,0,0,1 | F,0,0,1,0,0,0,1 @ F,0,0,1,0,0,0,1 @ F,0,0,1,0,0,0,1 @ F,0,0,1,0,0,0,1 @ F,0,0,1,0,0,0,1 @ F,0,0,1,0,0,0,1 | F,0,0,1,0,0,0,1 @ F,0,0,1,0,0,0,1 @ F,0,0,1,0,0,0,1 @ F,0,0,1,0,0,0,1 @ F,0,0,1,0,0,0,1 @ F,0,0,1,0,0,0,1 @ F,0,0,1,0,0,0,1 @ F,0,0,1,0,0,0,1 @ F,0,0,1,0,0,0,1"
       radius="0"
       unit="px"
       method="auto"
       mode="F"
       chamfer_steps="1"
       flexible="false"
       use_knot_distance="true"
       apply_no_radius="true"
       apply_with_radius="true"
       only_selected="false"
       hide_knots="false" />
    <filter
       style="color-interpolation-filters:sRGB"
       inkscape:label="Color Shift"
       id="filter112"
       x="0"
       y="0"
       width="1"
       height="1">
      <feColorMatrix
         type="hueRotate"
         values="298"
         result="color1"
         id="feColorMatrix111" />
      <feColorMatrix
         type="saturate"
         values="1"
         result="color2"
         id="feColorMatrix112" />
    </filter>
  </defs>
  <sodipodi:namedview
     id="namedview1"
     pagecolor="#505050"
     bordercolor="#ffffff"
     borderopacity="1"
     inkscape:showpageshadow="0"
     inkscape:pageopacity="0"
     inkscape:pagecheckerboard="1"
     inkscape:deskcolor="#505050"
     showgrid="false"
     inkscape:zoom="1.4142136"
     inkscape:cx="291.68155"
     inkscape:cy="184.20132"
     inkscape:window-width="1920"
     inkscape:window-height="1017"
     inkscape:window-x="-8"
     inkscape:window-y="-8"
     inkscape:window-maximized="1"
     inkscape:current-layer="svg1" />
  <path
     id="path2966"
     style="display:inline;opacity:1;fill:#f15a22;fill-opacity:1;stroke-width:0.879906"
     d="m 285.51523,0 v 0.01414 a 17.275919,22.169775 45 0 0 -16.98828,7.644525 17.275919,22.169775 45 0 0 -7.62696,16.699224 h -0.0312 v 6.589854 l -191.734374,-5e-6 1.4e-5,0.03322 a 12.010897,18.817072 45 0 0 -14.986332,7.259763 12.010897,18.817072 45 0 0 -7.265621,15.267581 l -0.02732,2.1e-5 3e-6,45.074217 0.02929,-10e-6 a 18.817072,12.010897 45 0 0 7.263673,15.15625 18.817072,12.010897 45 0 0 7.63672,5.43555 l -1e-6,36.98437 a 12.010897,18.817072 45 0 0 -7.636716,5.43555 12.010897,18.817072 45 0 0 -7.257815,14.89062 l -0.03127,0.008 4e-6,7.43359 H 22.298451 l -0.02505,0.0335 a 12.010897,18.817072 45 0 0 -14.9804694,7.25961 12.010897,18.817072 45 0 0 -7.2675785,15.38867 l -0.02535,4e-5 L 0,315.03405 h 0.031254 a 18.817072,12.010897 45 0 0 7.2617179,15.14648 18.817072,12.010897 45 0 0 15.2031211,7.26367 v 0.0273 H 181.26172 a 59.25,55.0625 0 0 0 -0.3711,4.82421 A 59.25,55.0625 0 0 0 239,397.28204 l -2e-5,0.0586 h 0.87695 a 59.25,55.0625 0 0 0 0.26367,0.0176 59.25,55.0625 0 0 0 0.26367,-0.0176 h 4.84766 a 59.25,55.0625 0 0 0 0.26368,0.0176 59.25,55.0625 0 0 0 0.26366,-0.0176 h 4.72266 a 59.25,55.0625 0 0 0 0.26367,0.0176 59.25,55.0625 0 0 0 0.26367,-0.0176 l 1.18555,10e-6 3e-5,-0.0781 a 59.25,55.0625 0 0 0 57.80078,-54.96679 59.25,55.0625 0 0 0 -0.24023,-4.82422 l 189.29687,-1e-5 v -0.0312 a 12.010897,18.817072 45 0 0 15.03906,-7.25977 12.010897,18.817072 45 0 0 7.28711,-15.34571 V 175.66689 a 18.817072,12.010897 45 0 0 -7.28711,-15.34766 18.817072,12.010897 45 0 0 -14.95899,-7.25781 v -0.0332 h -23.4375 l -10e-6,-25.94727 a 54.937977,42.810722 45 0 0 10e-6,-0.29492 v -1.17188 h -0.01 A 54.937977,42.810722 45 0 0 456.74596,84.002702 54.937977,42.810722 45 0 0 414.14439,65.030044 v -0.0042 h -30.79882 v -9.449223 h -0.004 a 22.169775,17.275919 45 0 0 -7.65233,-16.894535 22.169775,17.275919 45 0 0 -16.72462,-7.626953 v -0.02927 h -6.64649 v -5.904299 a 22.169775,17.275919 45 0 0 0,-0.544925 v -0.218743 h -10e-4 A 22.169775,17.275919 45 0 0 344.66608,7.658631 22.169775,17.275919 45 0 0 328.0235,0.03363 V 4e-4 Z m 58.36133,47.892576 0.082,0.04101 a 22.169775,17.275919 45 0 0 0,0.07029 c -0.0256,-0.01287 -0.0508,-0.02595 -0.0762,-0.0391 -0.002,-0.01987 -0.004,-0.05225 -0.006,-0.07227 z M 50.855075,61.189452 a 12.010897,18.817072 45 0 0 0.01761,0.0039 c 0.09557,1.87648 0.08559,3.758696 -0.01758,5.634765 z M 414.02109,157.35938 c 0.75774,0.42461 1.50794,0.86133 2.26172,1.29297 -0.32303,-0.14463 -0.64972,-0.2817 -0.95898,-0.45313 -0.4523,-0.25072 -1.75387,-1.09265 -1.30274,-0.83984 z m 4.86914,2.14843 a 54.937977,42.810722 45 0 0 0.64453,0.33008 c -0.0857,-0.0226 -0.17038,-0.0489 -0.25586,-0.0723 -0.1296,-0.0859 -0.25889,-0.1722 -0.38865,-0.25784 z m 90.75,31.3125 0.008,0.004 10e-6,97.63282 -0.008,-0.004 v -43.22071 z m -151.625,140.17187 c 0.0425,0.0398 0.0711,0.0938 0.0977,0.1504 h -0.041 c -0.0429,-0.0313 -0.10133,-0.0948 -0.1465,-0.13087 0.0329,-0.007 0.0574,-0.0127 0.0898,-0.0195 z"
     inkscape:label="BG 2" />
  <path
     id="path3008"
     style="display:inline;opacity:1;fill:#9ad3fe;fill-opacity:1;stroke-width:0.879906"
     d="m 285.51523,0 v 0.01414 c -5.91556,0.02237 -12.17747,2.840165 -16.98828,7.644525 -4.71802,4.730749 -7.51989,10.866131 -7.62696,16.699224 h -0.0312 v 6.589854 l -191.734374,-5e-6 1.4e-5,0.03322 C 64.282414,31.025848 58.646564,33.756 54.148098,38.240721 49.56913,42.831003 46.823774,48.599918 46.882477,53.508302 l -0.02732,2.1e-5 3e-6,45.074217 0.02929,-10e-6 c -0.0172,4.88635 2.722217,10.60238 7.263673,15.15625 2.29244,2.28919 4.922876,4.16148 7.63672,5.43555 l -1e-6,36.98437 c -2.713838,1.27407 -5.344304,3.14634 -7.636716,5.43555 -4.453136,4.46728 -7.178323,10.05819 -7.257815,14.89062 l -0.03127,0.008 4e-6,7.43359 H 22.298451 l -0.02505,0.0335 c -4.850842,0.0471 -10.483938,2.77696 -14.9804664,7.25977 -4.6200866,4.62998 -7.3720217,10.45667 -7.2675785,15.38867 l -0.02535,4e-5 L 4e-6,315.03421 h 0.031254 c -0.014255,4.88407 2.7239732,10.59546 7.2617179,15.14648 0.085617,0.0913 0.2235376,0.22071 0.2929406,0.2887 L 13.811931,324.72149 322.96436,60.422267 352.31784,31.025795 v -5.904299 c 0.003,-0.180984 0.003,-0.362647 0,-0.544925 l 1e-5,-0.218743 h -0.001 C 352.20235,18.521099 349.39148,12.385555 344.66647,7.65861 339.95113,2.957418 333.84096,0.157508 328.02389,0.033609 V 3.79e-4 Z"
     inkscape:label="BG 1"
     sodipodi:nodetypes="cccccccccccccccccccccccccccccccccccccccc" />
  <path
     id="path3017"
     style="display:inline;fill:#fdf4dd"
     d="m 294.40976,11.132811 c -0.031,0.0105 -0.0647,0.0284 -0.0957,0.0391 a 13.861563,19.577671 45 0 0 -0.24024,-0.0332 13.861563,19.577671 45 0 0 -14.81836,7.14844 13.861563,19.577671 45 0 0 -6.875,14.15625 c -0.0972,0.62195 -0.28285,1.24451 -0.27929,1.86328 l 0.0391,6.78906 -35.25,0.31836 c -34.22776,0.30934 -35.39679,0.38506 -40.29492,2.60352 l -5.04297,2.28515 c 0,0 -2.32894,-1.15968 -4.51953,-2.34765 -2.54714,-1.38133 -4.48485,-2.15598 -12.11133,-2.20118 -7.44525,-0.04424 -20.29166,-0.02752 -44.78129,-0.02152 l -50.605468,0.0117 -0.107421,0.0449 a 13.861563,19.577671 45 0 0 -0.27149,-0.0371 13.861563,19.577671 45 0 0 -14.8164,7.14844 13.861563,19.577671 45 0 0 -6.857419,14.78711 c -0.043,0.0792 -0.29492,0.52344 -0.29492,0.52344 -10e-6,0 0.0251,13.22274 -0.004,23.56836 0.1351,0.13311 0.17552,0.19426 0.30664,0.32421 a 19.577671,13.861563 45 0 0 6.84961,15.087889 19.577671,13.861563 45 0 0 7.77734,5.38282 c 0.0123,0.0202 0.0111,0.0227 0.0234,0.043 v 28.875 28.875 l -0.0918,0.0879 a 13.861563,19.577671 45 0 0 -7.74804,5.27343 13.861563,19.577671 45 0 0 -6.85938,14.66407 c -0.11495,0.21482 -0.27868,0.45235 -0.2793,0.66015 l -0.02135,8.17968 -23.5,0.0215 c -0.0206,2e-5 -0.13779,0.042 -0.16211,0.043 a 13.861563,19.577671 45 0 0 -0.32227,-0.0449 13.861563,19.577671 45 0 0 -14.8164,7.14844 13.861563,19.577671 45 0 0 -6.90234,13.16992 c -0.13129,0.6303 -0.21278,1.32347 -0.2129,2.10938 -0.003,15.5779 -0.0209,16.44841 -0.0371,23.5332 -8.7e-4,0.0331 -0.001,0.0664 -0.002,0.0996 -3.8e-4,0.1706 3.9e-4,0.38447 0,0.5625 l 0.0508,0.0801 c 0.10999,4.93379 2.53965,10.53195 7.10352,15.0957 1.43928,1.43931 2.98259,2.67108 4.57617,3.6875 -1.59359,1.01642 -3.1369,2.24818 -4.57617,3.6875 -4.64049,4.64037 -7.09237,10.35467 -7.12305,15.34766 l -0.0254,0.041 c 1.7e-4,0.15797 -1.6e-4,0.13184 0,0.28516 10e-4,0.0664 -0.002,0.13311 0,0.19922 0.0124,12.2374 -0.006,9.79888 -0.006,23.24218 0,3.04862 0.89603,5.76972 2.28906,8.19727 a 19.577671,13.861563 45 0 0 4.86524,6.91992 19.577671,13.861563 45 0 0 14.20508,6.87305 c 0.18076,0.0376 0.75528,0.28068 0.84961,0.28125 6.83867,0.0413 -10.02763,0.041 79.808588,0.24219 l 78.93767,0.17766 c 0,0 0.33333,4.80697 0.5,7.21094 0.47115,6.79582 3.28649,17.22334 7.4082,23.64648 7.14048,11.12745 20.23818,20.52673 32.87305,23.58985 30.54908,7.4061 63.7797,-13.79206 65.42383,-45.69727 l 0.45117,-8.75 h 93.84375 c 45.96853,0 78.77194,-0.36143 94.44727,-0.46094 a 13.861563,19.577671 45 0 0 15.89648,-7.11328 13.861563,19.577671 45 0 0 6.85937,-14.68945 c 0.0215,-0.0248 0.26915,-0.23028 0.28321,-0.25 -0.008,-4.12919 0.0137,7.24513 0.0137,-58.48633 0,-36.30576 -0.002,-50.0483 -0.006,-58.41016 a 19.577671,13.861563 45 0 0 0,-0.1914 c 0,-0.0117 1e-5,-0.0704 0,-0.082 -0.003,-0.0153 -0.009,-0.0257 -0.0117,-0.041 a 19.577671,13.861563 45 0 0 -7.13867,-15.0332 19.577671,13.861563 45 0 0 -14.81836,-7.14844 19.577671,13.861563 45 0 0 -0.39648,0.0547 c -0.0744,-0.032 -0.0764,-0.0276 -0.15235,-0.0605 -7.64374,0.0259 -14.17817,0.004 -22.73242,-0.0195 0.008,-5.24232 -0.0751,-19.54962 -0.0801,-32.25586 -0.008,-0.0225 -0.0139,-0.0361 -0.0215,-0.0586 a 49.9175,41.134647 45 0 0 -16.5918,-39.031249 49.9175,41.134647 45 0 0 -36.71484,-16.63672 49.9175,41.134647 45 0 0 -1.20703,0.11914 c -0.0747,-0.054 -0.10982,-0.0721 -0.18555,-0.12696 l -37.67953,-0.07825 -0.002,-10.37891 c -0.0713,-0.11 -0.14734,-0.20106 -0.21875,-0.31054 a 22.135145,18.240524 45 0 0 -7.17969,-15.88477 22.135145,18.240524 45 0 0 -16.28125,-7.37695 22.135145,18.240524 45 0 0 -0.2832,0.0469 c -0.033,-0.0161 -0.0627,-0.0367 -0.0957,-0.0527 l -7.20308,-0.04303 v -8.57227 c -0.086,-0.22029 -0.20604,-0.43465 -0.29688,-0.65429 a 19.577671,13.861563 45 0 0 -6.85937,-14.71875 19.577671,13.861563 45 0 0 -14.81641,-7.14844 19.577671,13.861563 45 0 0 -0.33789,0.0469 c -0.041,-0.0142 -0.0801,-0.0368 -0.12109,-0.0508 -8.92278,0.0132 -16.75647,-9.5e-4 -24.29883,-0.002 z"
     inkscape:label="Cream" />
  <path
     id="path2"
     style="display:inline;opacity:1;fill:#ef571f;fill-opacity:1"
     d="m 301.06015,36.654301 c -0.0104,0 -0.0189,0.006 -0.0293,0.006 h -0.0508 v 0.01 c -2.09695,0.046 -3.78728,1.74569 -3.78711,3.85352 0,0.0602 0.0305,0.11039 0.0332,0.16992 h -0.0332 v 70.146479 53.21094 h 0.0332 c -0.003,0.0603 -0.0352,0.11091 -0.0352,0.17187 -2.1e-4,2.10846 1.69123,3.80851 3.78906,3.85352 v 0.008 h 0.0391 c 0.0138,1.5e-4 0.0252,0.008 0.0391,0.008 0.0138,0 0.0252,-0.008 0.0391,-0.008 h 17.1582 v -0.004 h 30.1211 v -0.0234 c 0.0622,0.003 0.11476,0.0351 0.17773,0.0352 2.11204,1.8e-4 3.81595,-1.69824 3.85547,-3.80079 4.4e-4,-0.0241 0.0137,-0.0441 0.0137,-0.0684 1e-5,-0.0242 -0.0132,-0.0442 -0.0137,-0.0684 V 147.01804 132.4028 c 3.3e-4,-0.0207 0.0117,-0.0378 0.0117,-0.0586 0,-0.0208 -0.0114,-0.0379 -0.0117,-0.0586 v -0.33593 h -0.0684 c -0.18503,-1.73971 -1.48947,-3.08362 -3.20117,-3.35592 v -0.11914 h -1.60156 c -0.001,-1e-5 -0.003,0 -0.004,0 h -0.002 l -7.40039,0.002 -7.41016,-0.002 h -0.002 -1.01563 -0.58007 v 0.11719 c -1.71486,0.26988 -3.02184,1.61603 -3.20704,3.35742 h -0.0625 v 0.30859 c -6.9e-4,0.0303 -0.0176,0.0555 -0.0176,0.0859 -1e-5,0.0305 0.0169,0.0556 0.0176,0.0859 v 11.11328 h -6.125 v -33.0586 -19.263669 l 26.64649,-0.002 v -0.0254 c 0.0587,0.007 0.11682,0.0186 0.17578,0.0234 2.10711,1.8e-4 3.80432,-1.68944 3.85156,-3.78516 h 0.006 v -0.0254 c 3.3e-4,-0.0207 0.0117,-0.0378 0.0117,-0.0586 0,-0.0208 -0.0114,-0.0379 -0.0117,-0.0586 v -16.68144 c 3.3e-4,-0.0207 0.0117,-0.0378 0.0117,-0.0586 0,-0.0208 -0.0114,-0.0379 -0.0117,-0.0586 v -0.33398 h -0.0684 c -0.18424,-1.74016 -1.48883,-3.08502 -3.20117,-3.35742 v -0.11719 h -0.57812 c -0.003,-10e-6 -0.006,-0.002 -0.01,-0.002 -0.005,3.8e-4 -0.009,0.002 -0.0137,0.002 h -0.98047 c -0.008,-7e-5 -0.0156,-0.002 -0.0234,-0.002 -0.003,0 -0.006,0.002 -0.01,0.002 h -25.79493 v -26.02344 c 0.002,-0.0474 0.0274,-0.087 0.0274,-0.13476 0,-0.0478 -0.0256,-0.0874 -0.0274,-0.13477 v -0.45898 h -0.0937 c -0.27614,-1.71807 -1.63048,-3.02797 -3.38086,-3.20118 v -0.0684 h -0.33789 c -0.0104,-6e-5 -0.0189,-0.006 -0.0293,-0.006 -0.0144,9.9e-4 -0.0286,0.005 -0.043,0.006 h -0.9043 c -0.0235,-4.7e-4 -0.0467,-0.006 -0.0703,-0.006 -0.0104,0 -0.0189,0.006 -0.0293,0.006 h -14.73384 c -0.0104,-6e-5 -0.0189,-0.006 -0.0293,-0.006 -0.0144,9.9e-4 -0.0286,0.005 -0.043,0.006 h -0.9043 c -0.0235,-4.7e-4 -0.0468,-0.006 -0.0703,-0.006 z M 85.692961,66.679691 v 0.0684 c -1.71445,0.28485 -3.02861,1.67806 -3.21289,3.40626 h -0.0566 v 17.27539 h 0.0215 c 0.0443,2.10026 1.75666,3.78141 3.85742,3.78711 0.0515,-9.7e-4 0.10291,-0.003 0.154301,-0.006 v 0.006 h 11.07812 v 96.857419 1.49023 h -11.33398 v 0.0117 c -2.02166,0.062 -3.65432,1.67088 -3.7461,3.69141 h -0.006 v 0.0449 c -0.005,0.0403 -0.01,0.0807 -0.0137,0.12109 0.004,0.0404 0.008,0.0808 0.0137,0.1211 v 16.55664 c -0.005,0.0403 -0.01,0.0807 -0.0137,0.12109 0.004,0.0404 0.008,0.0808 0.0137,0.12109 v 0.18946 h 0.0215 c 0.16245,1.95802 1.76674,3.48336 3.73047,3.54687 v 0.008 h 0.0664 c 0.0117,0.001 0.0235,0.003 0.0352,0.004 0.0319,-9.4e-4 0.0638,-0.002 0.0957,-0.004 h 93.773438 15.0332 c 0.0117,0.001 0.0235,0.003 0.0352,0.004 0.0319,-9.4e-4 0.0638,-0.002 0.0957,-0.004 h 0.0274 v -0.002 c 2.08643,-0.0662 3.74417,-1.77576 3.74609,-3.86328 -10e-4,-0.043 -0.003,-0.086 -0.006,-0.12891 h 0.0372 v -97.47461 -11.19921 h -0.0332 c -0.038,-2.029109 -1.63743,-3.683989 -3.66407,-3.791019 v -0.10937 h -12.52734 v -6.92969 -19.96875 c 0.002,-0.0273 0.004,-0.0547 0.006,-0.082 -4.5e-4,-0.0632 -0.002,-0.12637 -0.006,-0.18946 v -0.20507 h -0.0156 c -0.17938,-1.74228 -1.5069,-3.14671 -3.23633,-3.42383 v -0.0508 H 86.302361 Z m 122.945319,0 v 0.0469 l -0.004,0.0742 c -1.68751,0.28964 -2.98463,1.65303 -3.1875,3.35352 h -0.0781 v 4.93945 12.33594 13.572259 17.27539 13.57422 13.79688 3.47851 h 0.0137 c 0.0222,1.04976 0.46256,1.99439 1.1582,2.67774 0.34768,0.34153 0.75883,0.61722 1.21484,0.80859 0.45324,0.1902 0.94975,0.29544 1.47071,0.29883 0.007,4e-5 0.0128,0.002 0.0195,0.002 0.002,-1.2e-4 0.004,-0.002 0.006,-0.002 0.0502,-0.003 0.10037,-0.007 0.15039,-0.0117 v 0.0137 h 7.92578 62.2207 7.92578 v -0.0137 c 0.0494,0.005 0.0989,0.009 0.14844,0.0117 0.003,2e-4 0.006,0.002 0.01,0.002 0.003,1.5e-4 0.005,-1.4e-4 0.008,0 0.51531,-0.002 1.00564,-0.10778 1.45508,-0.29297 0.008,-0.003 0.0172,-0.004 0.0254,-0.008 0.44904,-0.18863 0.85313,-0.46039 1.19726,-0.79492 0.005,-0.005 0.0122,-0.008 0.0176,-0.0137 0.002,-0.002 0.002,-0.004 0.004,-0.006 0.33845,-0.33399 0.61493,-0.73004 0.8125,-1.16993 0.007,-0.0159 0.0145,-0.0309 0.0215,-0.0469 0.19115,-0.44138 0.30307,-0.92637 0.31641,-1.43555 1.8e-4,-0.007 0.004,-0.0126 0.004,-0.0195 h 0.0156 v -17.27539 -13.57422 -17.27539 -13.572259 -12.33594 -4.93945 h -0.0781 c -0.20287,-1.70053 -1.49994,-3.06392 -3.1875,-3.35352 l -0.006,-0.0742 v -0.0469 h -9.04688 -61.50586 z m -86.62696,24.53711 h 36.42774 v 6.3125 h -36.42774 z m 107.90235,0 h 6.20117 v 6.31054 h -6.20117 z m 30.84765,0 h 6.20118 v 6.31054 h -6.20118 z m 133.32032,4.72265 c -6.31748,0.0295 -12.11719,1.64063 -18.12696,4.687499 -7.60094,3.85382 -8.27857,4.008 -7.98633,12.60547 0.66688,19.63217 0.8665,20.44106 1.08204,30.0332 0.30899,13.75165 0.45413,15.76188 0.75,29.45313 0,2.2e-4 0.004,-0.002 0.004,-0.002 -1.3e-4,0.0278 -0.002,0.058 -0.002,0.082 0.56394,-0.32386 0.95736,-0.56691 1.56055,-0.48438 1.02127,0.13972 1.78775,0.74305 2.35742,1.47461 -0.0328,0.37639 -0.18414,0.84347 -0.10547,1.76563 0.23919,-0.23894 0.52342,-0.44778 0.77734,-0.67774 0.49877,0.98991 0.7296,1.93786 0.77735,2.15625 0.0517,0.23648 0.10853,0.52312 0.16406,0.7793 -0.0787,0.75225 -0.13576,1.29265 -0.33398,2.63476 0.20308,-0.19719 0.47603,-0.41886 0.70703,-0.6289 0.25051,1.79289 0.35129,4.1363 -0.0937,7.52148 0,0 0.01,-0.0134 0.01,-0.0137 1.02341,-1.04606 2.54402,-2.02518 4.56055,-2.4707 0.0125,0.006 0.0246,0.008 0.0371,0.0137 1.00541,-2.14327 1.89946,-3.97349 3.07422,-6.375 2.9e-4,-6e-4 -3e-4,-10e-4 0,-0.002 0.32721,-0.66892 0.93811,-1.93866 1.32422,-2.72852 l 1.20703,-2.48633 c 0.34347,-0.70478 0.73116,-1.50497 1.1289,-2.32422 1.3e-4,-2.7e-4 0.002,2.7e-4 0.002,0 0.004,-0.001 0.008,-0.002 0.0117,-0.004 -0.003,-6.1e-4 -0.006,-0.002 -0.01,-0.002 l 1.0957,-2.25586 c 0.36537,-0.75564 0.48814,-0.99816 0.89844,-1.8496 6.6e-4,2e-5 10e-4,-6e-5 0.002,0 l 4.59766,-9.46094 c -5.18691,-3.47564 -8.30334,-9.3052 -8.3125,-15.54883 0,-10.35528 8.39472,-18.75 18.75,-18.75 9.26889,0 16.91646,6.74084 18.42969,15.57812 -3.86244,12.79408 -9.69555,18.95426 -16.35157,21.71289 -0.69113,0.0772 -1.36638,0.20899 -2.07812,0.20899 -1.93901,-0.009 -3.86496,-0.31862 -5.70899,-0.91797 l -1.28515,2.64453 c -1.28997,0.0761 -2.58892,0.0976 -3.89258,0.0645 -4.0071,8.24412 -6.90561,14.26257 -10.86719,22.21485 1.25334,-0.0313 2.53,0.18558 3.75,0.52539 0.78609,0.21711 1.61972,0.51596 2.49219,0.89062 0.12192,0.052 0.23661,0.10525 0.35547,0.15821 0.90405,0.40643 1.8453,0.88461 2.84375,1.48242 3.3348,1.99668 12.35062,8.33709 16.24609,20.43555 26.50715,-32.17026 26.29776,-32.08524 38.92383,-48.14258 -0.2731,-0.29178 -0.5314,-0.59376 -0.92578,-1.11719 l -0.002,-0.002 -1.78907,-2.54102 c -1.44227,-1.89264 -3.00312,-3.44531 -3.46093,-3.44531 -1.08152,1.73711 -2.09946,3.52852 -3.14844,5.29297 -0.37403,-1.42874 -0.78635,-2.90128 -1.21484,-4.375 2.79141,-5.40212 4.64715,-8.94678 6.05664,-11.27539 l 4.58398,-7.57617 -2.67578,-2.04493 c -1.24322,-0.94972 -1.73782,-1.74813 -2.60938,-1.64648 -0.29068,0.0339 -0.62451,0.16826 -1.04101,0.42969 -0.55443,0.348 -2.78931,5.851 -6.50977,15.21093 -0.48021,-1.34446 -0.91606,-2.45536 -1.20703,-2.9375 0.49283,-1.21294 0.73127,-1.89909 1.2168,-3.07812 l 7.79883,-18.94141 -1.91992,-1.86718 c -1.45482,-1.4143 -2.68318,-2.94987 -4.00782,-3.0586 -0.44154,-0.0362 -0.89211,0.086 -1.36718,0.42383 -0.63794,0.4537 -1.77525,4.8559 -3.00977,9.47656 -1.56821,5.86994 -2.62288,9.68195 -3.72461,13.72071 -0.60858,-0.34284 -1.13934,-0.60815 -1.7207,-0.91797 0.34,-1.3246 0.57294,-2.06141 0.89062,-3.33594 1.14723,-4.60205 4.53958,-16.74702 7.4375,-26.27149 -4.30847,-2.32759 -5.93015,-3.17085 -11.93554,-6.07617 -11.38058,-5.505089 -20.35847,-8.082879 -28.48047,-8.044919 z M 229.91367,122.06445 h 37.04883 v 6.3125 h -37.04883 z m -107.90235,0.0996 h 52.65235 v 67.40039 h -52.65235 z m 281.97852,5.29297 a 14.375,14.375 0 0 0 -14.375,14.375 14.375,14.375 0 0 0 14.375,14.375 14.375,14.375 0 0 0 14.375,-14.375 14.375,14.375 0 0 0 -14.375,-14.375 z m -272.42578,2.125 v 47.41992 h 2.09375 l 0.98828,1.08594 1.09766,1.20508 2.00976,2.20898 0.0469,0.0508 0.004,-0.004 c 0.51535,0.51254 1.34164,0.53237 1.88086,0.0449 0.53624,-0.49084 0.59459,-1.3155 0.13281,-1.87695 l 0.004,-0.004 -0.0469,-0.0527 -1.96289,-2.15429 -0.0449,-0.0547 -0.41015,-0.44922 h 2.08203 l 0.98828,1.08594 1.09766,1.20508 2.00976,2.20898 0.0469,0.0508 0.004,-0.004 c 0.51535,0.51254 1.34164,0.53237 1.88086,0.0449 0.53624,-0.49084 0.59454,-1.3155 0.13281,-1.87695 l 0.004,-0.004 -0.0469,-0.0527 -1.9629,-2.15429 -0.0449,-0.0547 -0.41015,-0.44922 h 2.08203 l 0.98828,1.08594 1.09766,1.20508 2.00976,2.20898 0.0449,0.0508 0.004,-0.004 c 0.51535,0.51254 1.34164,0.53237 1.88086,0.0449 0.53683,-0.4903 0.59604,-1.315 0.13476,-1.87695 l 0.004,-0.004 -0.0469,-0.0527 -1.96289,-2.15429 -0.0469,-0.0547 -0.4082,-0.44922 h 2.08008 l 0.98828,1.08594 1.09961,1.20508 2.00781,2.20898 0.0469,0.0508 0.004,-0.004 c 0.51535,0.51254 1.34164,0.53237 1.88086,0.0449 0.53624,-0.49084 0.59459,-1.3155 0.13281,-1.87695 l 0.006,-0.004 -0.0449,-0.0527 -1.96289,-2.15429 -0.0469,-0.0547 -0.4082,-0.44922 h 2.16992 l 0.98828,1.08594 1.09961,1.20508 2.00781,2.20898 0.0469,0.0508 0.004,-0.004 c 0.51535,0.51254 1.34164,0.53237 1.88086,0.0449 0.53624,-0.49084 0.59459,-1.3155 0.13281,-1.87695 l 0.004,-0.004 -0.043,-0.0527 -1.9629,-2.15429 -0.0488,-0.0547 -0.40821,-0.44922 h 3.29297 v -3.57617 l 0.41406,0.45508 2.00977,2.21094 0.0488,0.0508 0.0117,-0.004 c 0.51581,0.51199 1.34214,0.53073 1.88086,0.043 0.53624,-0.49084 0.59459,-1.31549 0.13281,-1.87695 l 0.0117,-0.004 -0.0469,-0.0508 -1.96289,-2.15625 -0.0449,-0.0527 -1.09961,-1.20703 -1.33789,-1.46875 v -2.13867 l 0.41406,0.45508 2.00977,2.20898 0.0469,0.0508 0.0117,-0.0117 c 0.51535,0.51254 1.34164,0.53237 1.88086,0.0449 0.53624,-0.49084 0.59459,-1.3155 0.13281,-1.87696 l 0.0117,-0.0117 -0.0469,-0.0508 -1.96289,-2.15625 -0.0449,-0.0527 -1.09961,-1.20508 -1.33789,-1.46875 v -2.13867 l 0.41406,0.45508 2.00976,2.20898 0.0469,0.0508 0.0117,-0.004 c 0.51586,0.51199 1.34214,0.53074 1.88086,0.043 0.53625,-0.49084 0.59459,-1.3155 0.13281,-1.87696 l 0.0117,-0.0117 -0.0488,-0.0508 -1.96289,-2.15625 -0.043,-0.0527 -1.09961,-1.20508 -1.33789,-1.46875 v -2.14062 l 0.41406,0.45507 2.00782,2.20899 0.0488,0.0527 0.004,-0.0117 c 0.51586,0.51199 1.34214,0.53074 1.88086,0.043 0.53624,-0.49084 0.59459,-1.31549 0.13281,-1.87695 l 0.0117,-0.004 -0.0469,-0.0508 -1.9629,-2.15625 -0.0449,-0.0527 -1.09961,-1.20508 -1.33789,-1.46875 v -2.13867 l 0.41407,0.45508 2.00976,2.20898 0.0469,0.0508 0.0117,-0.0117 c 0.51586,0.51199 1.34214,0.53074 1.88086,0.043 0.53624,-0.49084 0.5946,-1.31549 0.13282,-1.87695 l 0.0117,-0.004 -0.0469,-0.0527 -1.96289,-2.15625 -0.0449,-0.0508 -1.09961,-1.20508 -1.33789,-1.46875 v -2.14063 l 0.41406,0.45508 2.00977,2.21094 0.0469,0.0508 0.0117,-0.0117 c 0.51586,0.51199 1.34214,0.53074 1.88086,0.043 0.53624,-0.49084 0.59459,-1.31549 0.13281,-1.87695 l 0.006,-0.004 -0.0488,-0.0527 -1.96289,-2.15625 -0.043,-0.0508 -1.09961,-1.20703 -1.34179,-1.46679 v -2.125 l 0.41601,0.45508 2.00977,2.20898 0.0469,0.0508 0.004,-0.0117 c 0.51586,0.51199 1.34214,0.53073 1.88086,0.043 0.53624,-0.49084 0.59459,-1.31549 0.13281,-1.87695 l 0.004,-0.0117 -0.0469,-0.0508 -1.96289,-2.15625 -0.0449,-0.0508 -1.09961,-1.20508 -1.33789,-1.46875 v -2.54297 z m 102.60156,28.4375 c 0.011,-0.45774 -4.20743,2.6281 -6.72851,4.84766 -10.2961,9.06293 -13.3296,24.25993 -7.24219,36.29101 3.12183,6.17021 9.03853,12.25245 13.39258,13.76953 l 2.65234,0.92383 -0.5,44.43945 -0.5,44.4375 -4.93164,3.50586 c -12.07205,8.58165 -16.51419,23.88917 -10.72852,36.96875 3.7586,8.49694 10.31989,13.98978 21.16016,17.7168 1.375,0.47267 5.1998,0.70738 8.5,0.52148 16.58936,-0.93679 28.81872,-13.67026 28.91601,-30.10937 0.0653,-11.03466 -6.29738,-22.53911 -14.45703,-26.13867 l -3.95898,-1.7461 v -44.71289 -44.71289 l 4.4668,-2.61718 c 7.16574,-4.19968 12.89167,-13.25922 14.08984,-22.29102 1.23427,-9.30388 -4.14173,-21.81338 -11.92773,-27.75195 -1.82434,-1.39149 -4.78216,-3.63987 -4.78516,-3.2793 -0.0518,6.02986 -0.002,7.99117 0.15625,29.51367 l -6.75,4.02344 -6.75,4.02344 -7,-3.74414 -7,-3.74414 c -0.1834,-24.8415 -0.17448,-26.01651 -0.0742,-30.13477 z m 69.83789,16.58984 v 0.002 h -3.02344 v 0.0254 c -2.09783,0.045 -3.78926,1.74507 -3.78906,3.85351 0,0.0547 0.0291,0.10013 0.0312,0.1543 h -0.0293 v 41.85742 H 286.97612 269.7808 c -0.007,-3e-5 -0.0126,-0.004 -0.0195,-0.004 -0.007,0 -0.0126,0.004 -0.0195,0.004 h -0.041 v 0.008 c -2.10657,0.0351 -3.80684,1.74268 -3.80664,3.85743 -10e-6,0.0595 0.0306,0.10913 0.0332,0.16796 h -0.0137 v 7.35743 62.78906 7.35742 h 0.0137 c -0.002,0.0569 -0.0332,0.10459 -0.0332,0.16211 -2e-4,2.11474 1.70007,3.82229 3.80664,3.85742 v 0.0137 h 17.27539 v -0.0273 l 14.0039,0.0137 v 0.0137 h 13.80664 l 1.98633,0.002 v -0.002 h 1.48242 v -0.0801 c 1.73749,-0.18202 3.08148,-1.48231 3.35938,-3.18946 h 0.11523 v -0.57226 c 9e-5,-0.0104 0.006,-0.0189 0.006,-0.0293 0,-0.0104 -0.006,-0.0189 -0.006,-0.0293 v -53.73633 -49.2871 l 26.64649,-0.002 v -0.0254 c 0.063,0.003 0.11591,0.0371 0.17969,0.0371 2.13691,2.1e-4 3.86935,-1.73219 3.86914,-3.86914 0,-0.0277 -0.0151,-0.0506 -0.0156,-0.0781 v -16.64258 c 5.8e-4,-0.0276 0.0156,-0.0504 0.0156,-0.0781 0,-0.0277 -0.0151,-0.0506 -0.0156,-0.0781 v -0.32813 h -0.0664 c -0.19006,-1.73507 -1.49335,-3.07565 -3.20312,-3.3457 v -0.12891 z m 150.4043,14.93164 v 0.0176 c -2.09699,0.046 -3.78731,1.74569 -3.78711,3.85352 -10e-6,0.0575 0.0307,0.1052 0.0332,0.16211 h -0.0332 v 45.39843 2.01368 h 0.0371 c -0.003,0.063 -0.0371,0.11591 -0.0371,0.17968 -2e-4,2.10783 1.69207,3.80753 3.78906,3.85352 0.0276,5.9e-4 0.0504,0.0156 0.0781,0.0156 0.0277,10e-6 0.0506,-0.015 0.0781,-0.0156 h 10.9668 v 36.51758 h -20.79102 v -5.72657 l 11.18555,-0.006 v -0.006 c 0.0576,0.003 0.10588,0.0332 0.16406,0.0332 2.1175,2e-4 3.82648,-1.70439 3.85742,-3.81445 h 0.0117 v -17.27539 h -0.0859 c -0.19602,-1.72205 -1.48687,-3.05085 -3.1836,-3.32618 v -0.14843 h -26.74609 l -0.0156,0.0449 h -5.76367 c -0.0303,-7e-4 -0.0554,-0.0176 -0.0859,-0.0176 -0.0305,1e-5 -0.0576,0.0169 -0.0879,0.0176 -2.09308,0.0503 -3.77949,1.74654 -3.77929,3.85156 -10e-6,0.0645 0.034,0.11796 0.0371,0.18164 h -0.0449 v 45.39844 1.29492 h 0.041 c -0.002,0.0569 -0.0332,0.10458 -0.0332,0.16211 -2e-4,2.10502 1.68621,3.80121 3.77929,3.85156 v 0.0195 h 17.27539 v -0.0332 l 28.05274,0.0273 v 0.006 h 5.66601 l 1.98438,0.002 v -0.002 h 9.625 v -0.0801 c 1.73658,-0.1828 3.07963,-1.48295 3.35742,-3.18946 h 0.11719 v -0.58203 c 3e-5,-0.007 0.004,-0.0126 0.004,-0.0195 1e-5,-0.007 -0.004,-0.0126 -0.004,-0.0195 v -7.85547 -53.14063 c 3e-5,-0.007 0.004,-0.0126 0.004,-0.0195 1e-5,-0.007 -0.004,-0.0126 -0.004,-0.0195 v -8.89844 -7.86132 c 3e-5,-0.007 0.004,-0.0126 0.004,-0.0195 1e-5,-0.007 -0.004,-0.0126 -0.004,-0.0195 v -0.57617 h -0.11719 c -0.2756,-1.70925 -1.6189,-3.0123 -3.35742,-3.19531 v -0.0742 h -0.3711 c -0.007,-3e-5 -0.0126,-0.004 -0.0195,-0.004 -0.007,0 -0.0126,0.004 -0.0195,0.004 h -11.02734 v -6.41601 l 10.8789,-0.006 v -0.0332 c 0.0589,0.003 0.10846,0.0332 0.16797,0.0332 2.10792,1.9e-4 3.80752,-1.6903 3.85352,-3.78711 h 0.0117 v -0.0625 c 3e-5,-0.007 0.004,-0.0126 0.004,-0.0195 10e-6,-0.007 -0.004,-0.0126 -0.004,-0.0195 v -16.75976 c 3e-5,-0.007 0.004,-0.0126 0.004,-0.0195 10e-6,-0.007 -0.004,-0.0126 -0.004,-0.0195 v -0.375 h -0.0762 c -0.18475,-1.73654 -1.48552,-3.07814 -3.19336,-3.35352 v -0.12109 h -15.11719 v -0.002 z m -122.90235,15.82618 v 0.0176 c -2.09399,0.0493 -3.78145,1.74588 -3.78125,3.85157 -1e-5,0.0582 0.0307,0.1065 0.0332,0.16406 h -0.0391 v 70.14648 22.49219 h 0.0391 c -0.002,0.0569 -0.0332,0.10459 -0.0332,0.16211 -2e-4,2.10569 1.68726,3.80225 3.78125,3.85156 v 0.0195 h 17.27539 v -0.0273 l 30.39258,0.0293 v -0.0391 c 0.0616,0.003 0.11346,0.0351 0.17578,0.0352 2.10642,2e-4 3.80328,-1.68841 3.85157,-3.7832 h 0.006 v -0.0274 c 3.2e-4,-0.0207 0.0117,-0.0378 0.0117,-0.0586 0,-0.0208 -0.0114,-0.0379 -0.0117,-0.0586 v -16.68164 c 3.2e-4,-0.0207 0.0117,-0.0378 0.0117,-0.0586 0,-0.0208 -0.0114,-0.0379 -0.0117,-0.0586 v -0.33199 h -0.0666 c -0.18329,-1.74125 -1.49005,-3.08685 -3.20312,-3.35938 v -0.11523 h -0.56836 c -0.007,-4e-5 -0.0126,-0.004 -0.0195,-0.004 -0.007,0 -0.0126,0.004 -0.0195,0.004 h -27.07422 v -2.34571 -3.38086 l 24.22071,0.0137 -0.004,-0.0117 h 2.78125 c 0.0337,8.8e-4 0.0617,0.0195 0.0957,0.0195 0.034,0 0.0619,-0.0187 0.0957,-0.0195 h 0.28125 v -0.0566 c 1.75047,-0.17785 3.10485,-1.49135 3.375,-3.21289 h 0.0996 v -0.49414 c 7e-4,-0.0303 0.0176,-0.0554 0.0176,-0.0859 0,-0.0305 -0.0169,-0.0556 -0.0176,-0.0859 v -4.76562 -57.78907 c 7e-4,-0.0303 0.0176,-0.0554 0.0176,-0.0859 0,-0.0305 -0.0169,-0.0556 -0.0176,-0.0859 v -0.51367 h -0.10352 c -0.27781,-1.71201 -1.62735,-3.0162 -3.37109,-3.19336 v -0.0762 H 368.36088 348.7808 Z M 40.310151,220.49803 c -0.0228,0.002 -0.0456,0.005 -0.0684,0.008 h -0.5332 v 0.0605 c -1.72087,0.28167 -3.04061,1.67982 -3.22266,3.41407 h -0.0469 v 17.27539 h 0.0137 c 0.0485,2.09723 1.759631,3.77372 3.85742,3.77929 0.0541,-8.4e-4 0.10812,-0.003 0.16211,-0.006 v 0.0137 h 7.41406 3.51758 v 36.5 h -10.80469 c -0.0962,-0.007 -0.19261,-0.01 -0.28906,-0.01 -0.0287,0.003 -0.0573,0.006 -0.0859,0.01 h -0.5039 v 0.0566 c -1.72674,0.27732 -3.05272,1.67856 -3.23438,3.41797 h -0.0351 v 0.31445 c -0.003,0.0234 -0.006,0.0468 -0.008,0.0703 0.002,0.0235 0.005,0.0469 0.008,0.0703 v 16.65821 c -0.003,0.0234 -0.006,0.0468 -0.008,0.0703 0.002,0.0235 0.005,0.0469 0.008,0.0703 v 0.0215 h 0.002 c 0.0496,2.09646 1.76037,3.77177 3.85742,3.77734 0.058,-10e-4 0.11595,-0.004 0.17383,-0.008 v 0.0176 h 70.146479 22.4961 v -0.0293 c 0.0558,0.008 0.11184,0.0142 0.16797,0.0195 2.13694,2e-4 3.86934,-1.73219 3.86914,-3.86914 -9.4e-4,-0.0319 -0.002,-0.0638 -0.004,-0.0957 v -16.60743 c 0.002,-0.0319 0.003,-0.0638 0.004,-0.0957 -9.4e-4,-0.0319 -0.002,-0.0638 -0.004,-0.0957 v -0.28906 h -0.008 v -12.92774 c 7.5e-4,-0.015 8e-4,-0.0299 0.002,-0.0449 h 0.006 v -17.27539 h -0.0254 c -0.17938,-1.74548 -1.51101,-3.15167 -3.24414,-3.42578 v -0.0488 h -11.82227 v -10.01367 c 0.002,-0.0384 0.003,-0.0768 0.004,-0.11524 -7.6e-4,-0.0384 -0.002,-0.0768 -0.004,-0.11523 v -12.69315 h -0.002 v -3.81641 c 0.003,-0.0579 0.005,-0.11584 0.006,-0.17382 -7e-4,-0.058 -0.003,-0.11594 -0.006,-0.17383 v -0.21289 h -0.0156 c -0.17623,-1.75232 -1.51373,-3.16449 -3.25391,-3.43555 v -0.0391 h -0.36328 c -0.0767,-0.005 -0.15358,-0.008 -0.23047,-0.008 -0.0228,0.002 -0.0456,0.005 -0.0684,0.008 h -7.87109 -62.021488 -7.70117 c -0.0767,-0.005 -0.15358,-0.008 -0.23047,-0.008 z m 91.906249,0 c -0.007,0 -0.0126,0.004 -0.0195,0.004 h -0.58203 v 0.11719 c -1.70581,0.27847 -3.00482,1.62143 -3.1875,3.35742 h -0.082 v 17.27539 h 0.0215 c 0.0483,2.09405 1.74392,3.78236 3.84961,3.7832 0.0575,10e-6 0.10518,-0.0307 0.16211,-0.0332 v 0.0371 l 10.97461,0.008 v 49.63477 7.35742 h 0.0234 c -0.002,0.0569 -0.0332,0.10459 -0.0332,0.16211 -1.9e-4,2.11128 1.69511,3.81489 3.79688,3.85547 v 0.0156 h 17.27539 v -0.0273 l 14.03516,0.0137 v 0.0137 h 14.33984 l 2.02734,0.002 v -0.002 h 0.90821 v -0.082 c 1.73544,-0.18374 3.07774,-1.48183 3.35547,-3.1875 h 0.11914 v -0.59179 c 1e-5,-0.003 0.002,-0.006 0.002,-0.01 0,-0.003 -0.002,-0.006 -0.002,-0.01 v -7.86523 -62.07813 -7.85156 c 8e-5,-0.0104 0.006,-0.0189 0.006,-0.0293 0,-0.0104 -0.006,-0.0189 -0.006,-0.0293 v -0.56641 h -0.11524 c -0.2757,-1.70989 -1.61995,-3.01309 -3.35937,-3.19531 v -0.0742 h -0.36914 c -0.007,-3e-5 -0.0126,-0.004 -0.0195,-0.004 -0.007,0 -0.0126,0.004 -0.0195,0.004 h -16.77539 c -0.007,-3e-5 -0.0126,-0.004 -0.0195,-0.004 -0.007,0 -0.0126,0.004 -0.0195,0.004 h -0.0527 v 0.01 c -2.10082,0.0417 -3.79512,1.74487 -3.79493,3.85547 0,0.0595 0.0306,0.10913 0.0332,0.16796 h -0.0254 v 7.35743 49.64453 h -6.77363 v -49.28907 -7.8125 c 4.4e-4,-0.0241 0.0137,-0.0441 0.0137,-0.0684 0,-0.0242 -0.0132,-0.0442 -0.0137,-0.0684 v -0.52735 h -0.10742 c -0.27614,-1.71256 -1.62397,-3.01838 -3.36719,-3.19726 v -0.0723 h -0.36133 c -0.007,-3e-5 -0.0126,-0.004 -0.0195,-0.004 -0.007,0 -0.0126,0.004 -0.0195,0.004 h -5.6543 -26.125 c -0.007,-3e-5 -0.0126,-0.004 -0.0195,-0.004 z m 77.01953,0 c -0.007,0 -0.0126,0.004 -0.0195,0.004 h -0.58008 v 0.11719 c -1.70669,0.27774 -3.0067,1.62078 -3.18945,3.35742 h -0.0801 v 17.27539 h 0.0195 c 0.0483,2.09405 1.74396,3.78236 3.84961,3.7832 0.0582,10e-6 0.10649,-0.0307 0.16407,-0.0332 v 0.0371 h 2.14843 v 0.002 h 6.09571 6.0957 v -0.002 h 2.14844 v -0.0391 c 0.0597,0.003 0.10953,0.0351 0.16992,0.0351 2.10644,2e-4 3.80326,-1.68841 3.85156,-3.7832 h 0.0117 v -0.0566 c 8e-5,-0.0104 0.006,-0.0189 0.006,-0.0293 0,-0.0104 -0.006,-0.0189 -0.006,-0.0293 v -16.74024 c 8e-5,-0.0104 0.006,-0.0189 0.006,-0.0293 0,-0.0104 -0.006,-0.0189 -0.006,-0.0293 v -0.36133 h -0.0723 c -0.18312,-1.73912 -1.48712,-3.08255 -3.19726,-3.35742 v -0.11719 h -0.57422 c -0.007,-3e-5 -0.0126,-0.004 -0.0195,-0.004 -0.007,0 -0.0126,0.004 -0.0195,0.004 l -8.39453,0.002 -8.38868,-0.002 c -0.007,-3e-5 -0.0126,-0.004 -0.0195,-0.004 z m 183.91602,0 c -0.007,0 -0.0126,0.004 -0.0195,0.004 h -0.0352 v 0.008 c -2.10933,0.032 -3.8127,1.74068 -3.8125,3.85743 0,0.0595 0.0305,0.10913 0.0332,0.16796 h -0.008 v 7.35743 62.78906 7.35742 h 0.008 c -0.002,0.0569 -0.0332,0.10459 -0.0332,0.16211 -2e-4,2.11675 1.70317,3.82544 3.8125,3.85742 v 0.0137 h 17.27539 v -0.0801 c 1.73857,-0.18102 3.08324,-1.48159 3.36133,-3.18946 h 0.11328 v -0.5625 c 1.5e-4,-0.0138 0.008,-0.0252 0.008,-0.0391 10e-6,-0.0138 -0.008,-0.0252 -0.008,-0.0391 v -7.83594 -49.31445 l 26.86328,0.0273 v -0.041 c 0.063,0.003 0.11591,0.0371 0.17969,0.0371 2.10645,2e-4 3.80327,-1.6884 3.85156,-3.7832 h 0.002 v -0.008 c 5.7e-4,-0.0276 0.0156,-0.0504 0.0156,-0.0781 0,-0.0277 -0.0151,-0.0506 -0.0156,-0.0781 v -16.64258 c 5.7e-4,-0.0276 0.0156,-0.0504 0.0156,-0.0781 0,-0.0277 -0.0151,-0.0506 -0.0156,-0.0781 v -0.3125 h -0.0625 c -0.18345,-1.74267 -1.49195,-3.09043 -3.20704,-3.36133 v -0.11328 h -0.56445 c -0.007,-3e-5 -0.0126,-0.004 -0.0195,-0.004 -0.007,0 -0.0126,0.004 -0.0195,0.004 h -30.49805 -17.20117 c -0.007,-3e-5 -0.0126,-0.004 -0.0195,-0.004 z m -40.89649,9.41211 6.40821,0.004 v 21.35352 h -6.40821 z m -61.80468,15.10352 6.74218,0.006 v 3.77344 32.74414 h -6.74218 z m -214.509769,0.0293 h 21.58984 v 6.25195 H 75.941011 Z M 209.23593,251.291 v 0.002 0.002 c -0.007,0 -0.0126,0.004 -0.0195,0.004 h -0.041 v 0.008 c -2.10657,0.0351 -3.80684,1.74268 -3.80664,3.85742 -1e-5,0.0595 0.0306,0.10911 0.0332,0.16797 h -0.0137 l -0.008,12.61328 -0.0137,-0.004 0.006,10.74414 -0.006,10.74219 0.0137,-0.004 0.008,12.61523 h 0.0137 c -0.002,0.0563 -0.0332,0.1033 -0.0332,0.16016 -2e-4,2.11473 1.70007,3.82228 3.80664,3.85742 v 0.0156 h 17.27539 v -0.084 c 1.73479,-0.18367 3.07701,-1.4808 3.35547,-3.18555 h 0.11914 v -0.59375 c 1e-5,-0.003 0.002,-0.006 0.002,-0.01 0,-0.003 -0.002,-0.006 -0.002,-0.01 v -20.875 -26.14062 c 1e-5,-0.003 0.002,-0.006 0.002,-0.01 0,-0.003 -0.002,-0.006 -0.002,-0.01 v -0.58594 h -0.11719 c -0.27539,-1.7086 -1.61991,-3.0094 -3.35742,-3.19336 v -0.0762 h -0.37305 c -0.007,-4e-5 -0.0126,-0.008 -0.0195,-0.008 -0.007,0 -0.0126,0.008 -0.0195,0.008 h -16.78321 c -0.007,-4e-5 -0.0126,-0.008 -0.0195,-0.008 z M 75.941011,275.83202 h 36.673829 v 5.71094 h -2.3418 -34.332029 z m 161.298829,38.00586 10.5,0.0215 10.5,0.0215 4.84375,8.63672 4.8418,8.63867 -2.28321,4.08789 c -1.25549,2.2484 -3.46522,6.11289 -4.91015,8.58789 l -2.62696,4.5 -10.43359,0.26758 -10.43164,0.26758 -2.31445,-4.26758 c -1.27258,-2.34695 -3.44609,-6.3402 -4.83008,-8.87305 l -2.51563,-4.60547 4.83008,-8.64062 z"
     inkscape:label="Shadow" />
  <path
     id="path3028"
     style="display:inline;opacity:1;fill:#013e74;fill-opacity:1"
     inkscape:label="Text"
     d="m 298.46054,34.054691 c -0.0104,0 -0.0189,0.006 -0.0293,0.006 h -0.0508 v 0.01 c -2.09696,0.046 -3.78728,1.74569 -3.78711,3.85352 0,0.0602 0.0305,0.11039 0.0332,0.16992 h -0.0332 v 70.146479 53.21094 h 0.0332 c -0.003,0.0603 -0.0352,0.11091 -0.0352,0.17187 -2.1e-4,2.10846 1.69122,3.80851 3.78906,3.85352 v 0.008 h 0.0391 c 0.0138,1.5e-4 0.0252,0.008 0.0391,0.008 0.0138,0 0.0252,-0.008 0.0391,-0.008 h 17.1582 v -0.004 h 30.1211 v -0.0234 c 0.0622,0.003 0.11476,0.0351 0.17773,0.0352 2.11204,1.9e-4 3.81595,-1.69824 3.85547,-3.80079 4.4e-4,-0.0241 0.0137,-0.0441 0.0137,-0.0684 10e-6,-0.0242 -0.0132,-0.0442 -0.0137,-0.0684 v -17.13672 -14.61524 c 3.3e-4,-0.0207 0.0117,-0.0378 0.0117,-0.0586 0,-0.0208 -0.0114,-0.0379 -0.0117,-0.0586 v -0.33593 h -0.0684 c -0.18503,-1.73926 -1.48947,-3.08317 -3.20117,-3.35547 v -0.11914 h -1.60156 c -10e-4,-1e-5 -0.003,0 -0.004,0 h -0.002 l -7.40039,0.002 -7.41016,-0.002 h -0.002 -1.01563 -0.58007 v 0.11719 c -1.71486,0.26989 -3.02184,1.61603 -3.20704,3.35742 h -0.0625 v 0.30859 c -6.9e-4,0.0303 -0.0176,0.0555 -0.0176,0.0859 -10e-6,0.0305 0.0169,0.0556 0.0176,0.0859 v 11.11328 h -6.125 v -33.0586 -19.263669 l 26.64649,-0.002 v -0.0254 c 0.0587,0.007 0.11682,0.0186 0.17578,0.0234 2.10711,1.9e-4 3.80432,-1.68944 3.85156,-3.78516 h 0.006 v -0.0254 c 3.3e-4,-0.0207 0.0117,-0.0378 0.0117,-0.0586 0,-0.0208 -0.0114,-0.0379 -0.0117,-0.0586 v -16.68164 c 3.3e-4,-0.0207 0.0117,-0.0378 0.0117,-0.0586 0,-0.0208 -0.0114,-0.0379 -0.0117,-0.0586 v -0.33398 h -0.0684 c -0.18424,-1.74016 -1.48883,-3.08502 -3.20117,-3.35742 v -0.11719 h -0.57812 c -0.003,-1e-5 -0.006,-0.002 -0.01,-0.002 -0.005,3.8e-4 -0.009,0.002 -0.0137,0.002 h -0.98047 c -0.008,-7e-5 -0.0156,-0.002 -0.0234,-0.002 -0.003,0 -0.006,0.002 -0.01,0.002 h -25.79493 v -26.02344 c 0.002,-0.0474 0.0274,-0.087 0.0274,-0.13476 0,-0.0478 -0.0256,-0.0874 -0.0274,-0.13477 v -0.45898 h -0.0937 c -0.27614,-1.71807 -1.63048,-3.02797 -3.38086,-3.20118 v -0.0684 h -0.33789 c -0.0104,-6e-5 -0.0189,-0.006 -0.0293,-0.006 -0.0144,10e-4 -0.0286,0.005 -0.043,0.006 h -0.9043 c -0.0235,-4.7e-4 -0.0467,-0.006 -0.0703,-0.006 -0.0104,0 -0.0189,0.006 -0.0293,0.006 h -14.73437 c -0.0104,-6e-5 -0.0189,-0.006 -0.0293,-0.006 -0.0144,10e-4 -0.0286,0.005 -0.043,0.006 h -0.9043 c -0.0235,-4.7e-4 -0.0468,-0.006 -0.0703,-0.006 z M 83.093351,64.080081 v 0.0684 c -1.71446,0.28485 -3.02861,1.67805 -3.21289,3.40625 h -0.0566 v 17.27539 h 0.0215 c 0.0443,2.10027 1.75666,3.78141 3.85742,3.78711 0.0515,-9.7e-4 0.10291,-0.003 0.154301,-0.006 v 0.006 h 11.07812 v 96.857419 1.49023 h -11.33398 v 0.0117 c -2.02166,0.062 -3.65432,1.67088 -3.7461,3.69141 h -0.006 v 0.0449 c -0.005,0.0403 -0.01,0.0807 -0.0137,0.12109 0.004,0.0404 0.008,0.0808 0.0137,0.1211 v 16.55664 c -0.005,0.0403 -0.01,0.0807 -0.0137,0.12109 0.004,0.0404 0.008,0.0808 0.0137,0.12109 v 0.18946 h 0.0215 c 0.16245,1.95803 1.76674,3.48336 3.73047,3.54687 v 0.008 h 0.0664 c 0.0117,0.001 0.0235,0.003 0.0352,0.004 0.0319,-9.4e-4 0.0638,-0.002 0.0957,-0.004 h 93.773438 15.0332 c 0.0117,0.001 0.0235,0.003 0.0352,0.004 0.0319,-9.4e-4 0.0638,-0.002 0.0957,-0.004 h 0.0273 v -0.002 c 2.08644,-0.0662 3.74417,-1.77576 3.74609,-3.86328 -0.001,-0.043 -0.003,-0.086 -0.006,-0.12891 h 0.0371 v -97.4746 -11.199219 h -0.0332 c -0.038,-2.02911 -1.63743,-3.68399 -3.66407,-3.79102 v -0.10937 h -12.52734 v -6.92969 -19.96875 c 0.002,-0.0273 0.004,-0.0547 0.006,-0.082 -4.5e-4,-0.0632 -0.002,-0.12637 -0.006,-0.18946 v -0.20507 h -0.0156 c -0.17938,-1.74228 -1.5069,-3.14671 -3.23633,-3.42383 v -0.0508 H 83.702731 Z m 122.945319,0 v 0.0469 l -0.004,0.0742 c -1.68751,0.28964 -2.98463,1.65303 -3.1875,3.35352 h -0.0781 v 4.93945 12.33594 13.57226 17.275389 13.57422 13.79688 3.47851 h 0.0137 c 0.0222,1.04976 0.46256,1.99439 1.1582,2.67774 0.34768,0.34153 0.75883,0.61722 1.21484,0.80859 0.45324,0.1902 0.94975,0.29544 1.47071,0.29883 0.007,4e-5 0.0128,0.002 0.0195,0.002 0.002,-1.2e-4 0.004,-0.002 0.006,-0.002 0.0502,-0.003 0.10037,-0.007 0.15039,-0.0117 v 0.0137 h 7.92578 62.2207 7.92579 v -0.0137 c 0.0494,0.005 0.0989,0.009 0.14843,0.0117 0.003,2e-4 0.006,0.002 0.01,0.002 0.003,1.5e-4 0.005,-1.4e-4 0.008,0 0.51531,-0.002 1.00564,-0.10778 1.45508,-0.29297 0.008,-0.003 0.0172,-0.004 0.0254,-0.008 0.44904,-0.18863 0.85313,-0.46039 1.19726,-0.79492 0.005,-0.005 0.0122,-0.008 0.0176,-0.0137 0.002,-0.002 0.002,-0.004 0.004,-0.006 0.33845,-0.33399 0.61493,-0.73003 0.8125,-1.16992 0.007,-0.0159 0.0145,-0.0309 0.0215,-0.0469 0.19115,-0.44138 0.30307,-0.92637 0.31641,-1.43555 1.8e-4,-0.007 0.004,-0.0126 0.004,-0.0195 h 0.0137 v -17.27539 -13.57422 -17.275389 -13.57226 -12.33594 -4.93945 h -0.0781 c -0.20287,-1.70053 -1.49993,-3.06392 -3.1875,-3.35352 l -0.004,-0.0742 v -0.0469 h -9.04688 -61.50586 z m -86.62696,24.53711 h 36.42774 v 6.3125 h -36.42774 z m 107.90235,0 h 6.20117 v 6.31054 h -6.20117 z m 30.84765,0 h 6.20118 v 6.31054 h -6.20118 z m -30.84765,30.847649 h 37.04883 v 6.3125 h -37.04883 z m -107.90235,0.0996 h 52.65235 v 67.40039 h -52.65235 z m 9.55274,7.41797 v 47.41992 h 2.09375 l 0.98828,1.08594 1.09766,1.20508 2.00976,2.20898 0.0469,0.0508 0.004,-0.004 a 1.3671875,1.3671875 0 0 0 1.88086,0.0449 1.3671875,1.3671875 0 0 0 0.13281,-1.87695 l 0.004,-0.004 -0.0469,-0.0527 -1.96289,-2.15429 -0.0449,-0.0547 -0.41015,-0.44922 h 2.08203 l 0.98828,1.08594 1.09766,1.20508 2.00976,2.20898 0.0469,0.0508 0.004,-0.004 a 1.3671875,1.3671875 0 0 0 1.88086,0.0449 1.3671875,1.3671875 0 0 0 0.13282,-1.87695 l 0.004,-0.004 -0.0469,-0.0527 -1.96289,-2.15429 -0.0449,-0.0547 -0.41015,-0.44922 h 2.08203 l 0.98828,1.08594 1.09766,1.20508 2.00976,2.20898 0.0449,0.0508 0.004,-0.004 a 1.3671875,1.3671875 0 0 0 1.88086,0.0449 1.3671875,1.3671875 0 0 0 0.13476,-1.87695 l 0.004,-0.004 -0.0469,-0.0527 -1.96289,-2.15429 -0.0469,-0.0547 -0.4082,-0.44922 h 2.08008 l 0.98828,1.08594 1.09961,1.20508 2.00781,2.20898 0.0469,0.0508 0.004,-0.004 a 1.3671875,1.3671875 0 0 0 1.88086,0.0449 1.3671875,1.3671875 0 0 0 0.13281,-1.87695 l 0.004,-0.004 -0.0449,-0.0527 -1.96289,-2.15429 -0.0469,-0.0547 -0.4082,-0.44922 h 2.16992 l 0.98828,1.08594 1.09961,1.20508 2.00781,2.20898 0.0469,0.0508 0.004,-0.004 a 1.3671875,1.3671875 0 0 0 1.88086,0.0449 1.3671875,1.3671875 0 0 0 0.13282,-1.87695 l 0.004,-0.004 -0.0449,-0.0527 -1.96289,-2.15429 -0.0469,-0.0547 -0.4082,-0.44922 h 3.29297 v -3.57617 l 0.41406,0.45508 2.00977,2.21094 0.0469,0.0508 0.004,-0.004 a 1.3671875,1.3671875 0 0 0 1.88086,0.043 1.3671875,1.3671875 0 0 0 0.13281,-1.87695 l 0.004,-0.004 -0.0469,-0.0508 -1.96289,-2.15625 -0.0449,-0.0527 -1.09961,-1.20703 -1.33789,-1.46875 v -2.13867 l 0.41406,0.45508 2.00977,2.20898 0.0469,0.0508 0.004,-0.004 a 1.3671875,1.3671875 0 0 0 1.88086,0.043 1.3671875,1.3671875 0 0 0 0.13281,-1.87696 l 0.004,-0.004 -0.0469,-0.0508 -1.96289,-2.15625 -0.0449,-0.0527 -1.09961,-1.20508 -1.33789,-1.46875 v -2.13867 l 0.41406,0.45508 2.00977,2.20899 0.0469,0.0508 0.004,-0.004 a 1.3671875,1.3671875 0 0 0 1.88086,0.043 1.3671875,1.3671875 0 0 0 0.13281,-1.87695 l 0.004,-0.004 -0.0469,-0.0508 -1.96289,-2.15625 -0.0449,-0.0527 -1.09961,-1.20507 -1.33789,-1.46875 v -2.14063 l 0.41406,0.45508 2.00977,2.20898 0.0469,0.0508 0.004,-0.004 a 1.3671875,1.3671875 0 0 0 1.88086,0.043 1.3671875,1.3671875 0 0 0 0.13281,-1.87696 l 0.004,-0.004 -0.0469,-0.0508 -1.96289,-2.15625 -0.0449,-0.0527 -1.09961,-1.20508 -1.33789,-1.46875 v -2.13867 l 0.41406,0.45508 2.00977,2.20898 0.0469,0.0508 0.004,-0.004 a 1.3671875,1.3671875 0 0 0 1.88086,0.043 1.3671875,1.3671875 0 0 0 0.13281,-1.87695 l 0.004,-0.004 -0.0469,-0.0508 -1.96289,-2.15625 -0.0449,-0.0527 -1.09961,-1.20508 -1.33789,-1.46874 v -2.14063 l 0.41406,0.45508 2.00977,2.21094 0.0469,0.0508 0.004,-0.004 a 1.3671875,1.3671875 0 0 0 1.88086,0.043 1.3671875,1.3671875 0 0 0 0.13281,-1.87695 l 0.004,-0.004 -0.0469,-0.0508 -1.96289,-2.15625 -0.0449,-0.0527 -1.09961,-1.20703 -1.33789,-1.46875 v -2.13867 l 0.41406,0.45508 2.00977,2.20898 0.0469,0.0508 0.004,-0.004 a 1.3671875,1.3671875 0 0 0 1.88086,0.043 1.3671875,1.3671875 0 0 0 0.13281,-1.87696 l 0.004,-0.004 -0.0469,-0.0508 -1.96289,-2.15625 -0.0449,-0.0527 -1.09961,-1.20508 -1.33789,-1.46875 v -2.58233 z m 172.43945,45.02734 v 0.002 h -3.02344 v 0.0254 c -2.09784,0.045 -3.78926,1.74507 -3.78906,3.85351 0,0.0547 0.029,0.10013 0.0312,0.1543 h -0.0293 v 41.85742 H 284.37651 267.1812 c -0.007,-3e-5 -0.0126,-0.004 -0.0195,-0.004 -0.007,0 -0.0126,0.004 -0.0195,0.004 h -0.041 v 0.008 c -2.10657,0.0351 -3.80684,1.74268 -3.80664,3.85743 -10e-6,0.0595 0.0306,0.10913 0.0332,0.16796 h -0.0137 v 7.35743 62.78906 7.35742 h 0.0137 c -0.002,0.0569 -0.0332,0.10459 -0.0332,0.16211 -2e-4,2.11474 1.70007,3.82229 3.80664,3.85742 v 0.0137 h 17.27539 v -0.0273 l 14.0039,0.0137 v 0.0137 h 13.80665 l 1.98632,0.002 v -0.002 h 1.48242 v -0.0801 c 1.73749,-0.18202 3.08148,-1.48231 3.35938,-3.18946 h 0.11523 v -0.57226 c 9e-5,-0.0104 0.006,-0.0189 0.006,-0.0293 0,-0.0104 -0.006,-0.0189 -0.006,-0.0293 v -53.73632 -49.28711 l 26.64649,-0.002 v -0.0254 c 0.063,0.003 0.11591,0.0371 0.17969,0.0371 2.13692,2.1e-4 3.86935,-1.73219 3.86914,-3.86914 0,-0.0277 -0.0151,-0.0506 -0.0156,-0.0781 v -16.64258 c 5.8e-4,-0.0276 0.0156,-0.0504 0.0156,-0.0781 0,-0.0277 -0.0151,-0.0506 -0.0156,-0.0781 v -0.32813 h -0.0664 c -0.19007,-1.73507 -1.49336,-3.07565 -3.20313,-3.3457 v -0.12891 z m 150.4043,14.93164 v 0.0176 c -2.09699,0.046 -3.78731,1.74569 -3.78711,3.85352 -1e-5,0.0575 0.0307,0.1052 0.0332,0.16211 h -0.0332 v 45.39843 2.01368 h 0.0371 c -0.003,0.063 -0.0371,0.11591 -0.0371,0.17968 -2e-4,2.10783 1.69207,3.80753 3.78906,3.85352 0.0276,5.9e-4 0.0504,0.0156 0.0781,0.0156 0.0277,1e-5 0.0506,-0.015 0.0781,-0.0156 h 10.9668 v 36.51758 h -20.79102 v -5.72656 l 11.18555,-0.006 v -0.006 c 0.0576,0.003 0.10588,0.0332 0.16406,0.0332 2.1175,2e-4 3.82648,-1.70438 3.85742,-3.81445 h 0.0117 v -17.27539 h -0.0859 c -0.19602,-1.72205 -1.48687,-3.05085 -3.1836,-3.32618 v -0.14843 h -26.74609 l -0.0156,0.0449 H 421.566 c -0.0303,-7e-4 -0.0554,-0.0176 -0.0859,-0.0176 -0.0305,1e-5 -0.0576,0.0169 -0.0879,0.0176 -2.09308,0.0503 -3.77949,1.74654 -3.77929,3.85156 -10e-6,0.0645 0.034,0.11796 0.0371,0.18164 h -0.0449 v 45.39844 1.29492 h 0.041 c -0.002,0.0569 -0.0332,0.10458 -0.0332,0.16211 -2e-4,2.10502 1.68621,3.80121 3.77929,3.85156 v 0.0195 h 17.27539 v -0.0332 l 28.05274,0.0274 v 0.006 h 5.66601 l 1.98438,0.002 v -0.002 h 9.625 v -0.0801 c 1.73658,-0.1828 3.07963,-1.48295 3.35742,-3.18946 h 0.11719 v -0.58203 c 3e-5,-0.007 0.004,-0.0126 0.004,-0.0195 10e-6,-0.007 -0.004,-0.0126 -0.004,-0.0195 v -7.85547 -53.14062 c 3e-5,-0.007 0.004,-0.0126 0.004,-0.0195 10e-6,-0.007 -0.004,-0.0126 -0.004,-0.0195 v -8.89843 -7.86133 c 3e-5,-0.007 0.004,-0.0126 0.004,-0.0195 10e-6,-0.007 -0.004,-0.0126 -0.004,-0.0195 v -0.57617 h -0.11719 c -0.2756,-1.70925 -1.6189,-3.0123 -3.35742,-3.19531 v -0.0742 h -0.37109 c -0.007,-3e-5 -0.0126,-0.004 -0.0195,-0.004 -0.007,0 -0.0126,0.004 -0.0195,0.004 h -11.02734 v -6.41601 l 10.87891,-0.006 v -0.0332 c 0.0589,0.003 0.10845,0.0332 0.16796,0.0332 2.10792,1.9e-4 3.80752,-1.69029 3.85352,-3.78711 h 0.0117 v -0.0625 c 3e-5,-0.007 0.004,-0.0126 0.004,-0.0195 1e-5,-0.007 -0.004,-0.0126 -0.004,-0.0195 v -16.75977 c 3e-5,-0.007 0.004,-0.0126 0.004,-0.0195 1e-5,-0.007 -0.004,-0.0126 -0.004,-0.0195 v -0.375 h -0.0762 c -0.18475,-1.73654 -1.48551,-3.07814 -3.19336,-3.35352 v -0.12109 h -15.11719 v -0.002 z m -122.90235,15.82618 v 0.0176 c -2.094,0.0493 -3.78144,1.74588 -3.78124,3.85157 -1e-5,0.0582 0.0307,0.1065 0.0332,0.16406 h -0.0391 v 70.14648 22.49219 h 0.0391 c -0.002,0.0569 -0.0332,0.10459 -0.0332,0.16211 -2e-4,2.10569 1.68724,3.80225 3.78124,3.85156 v 0.0195 h 17.2754 v -0.0273 l 30.39257,0.0293 v -0.0391 c 0.0616,0.003 0.11347,0.0351 0.17579,0.0352 2.10642,2e-4 3.80327,-1.68841 3.85156,-3.7832 h 0.006 v -0.0274 c 3.2e-4,-0.0207 0.0117,-0.0378 0.0117,-0.0586 0,-0.0208 -0.0114,-0.0379 -0.0117,-0.0586 V 282.8613 c 3.2e-4,-0.0207 0.0117,-0.0378 0.0117,-0.0586 0,-0.0208 -0.0114,-0.0379 -0.0117,-0.0586 v -0.33203 h -0.0664 c -0.18329,-1.74125 -1.49004,-3.08685 -3.20312,-3.35938 v -0.11523 h -0.56836 c -0.007,-4e-5 -0.0126,-0.004 -0.0195,-0.004 -0.007,0 -0.0126,0.004 -0.0195,0.004 h -27.07422 v -2.3457 -3.38086 l 24.22071,0.0137 -0.004,-0.0117 h 2.78125 c 0.0337,8.8e-4 0.0617,0.0195 0.0957,0.0195 0.034,0 0.0619,-0.0187 0.0957,-0.0195 h 0.28125 v -0.0566 c 1.75047,-0.17785 3.10485,-1.49135 3.375,-3.21289 h 0.0996 v -0.49414 c 7e-4,-0.0303 0.0176,-0.0554 0.0176,-0.0859 0,-0.0305 -0.0169,-0.0556 -0.0176,-0.0859 v -4.76562 -57.78907 c 7e-4,-0.0303 0.0176,-0.0554 0.0176,-0.0859 0,-0.0305 -0.0169,-0.0556 -0.0176,-0.0859 v -0.51367 h -0.10352 c -0.27781,-1.71201 -1.62735,-3.0162 -3.37109,-3.19336 v -0.0762 H 365.76143 346.18136 Z M 37.710541,217.89843 c -0.0228,0.002 -0.0456,0.005 -0.0684,0.008 h -0.5332 v 0.0605 c -1.720869,0.28167 -3.04061,1.67981 -3.222659,3.41406 h -0.0469 v 17.27539 h 0.0137 c 0.0485,2.09723 1.75963,3.77372 3.857419,3.77929 0.0541,-8.4e-4 0.10812,-0.003 0.16211,-0.006 v 0.0137 h 7.41406 3.51758 v 36.5 H 37.999572 c -0.0962,-0.007 -0.19262,-0.01 -0.289071,-0.01 -0.0287,0.003 -0.0573,0.006 -0.0859,0.01 h -0.50391 v 0.0566 c -1.72674,0.27732 -3.05272,1.67856 -3.23438,3.41797 h -0.0352 v 0.31448 c -0.003,0.0234 -0.006,0.0468 -0.008,0.0703 0.002,0.0235 0.005,0.0469 0.008,0.0703 v 16.65821 c -0.003,0.0234 -0.006,0.0468 -0.008,0.0703 0.002,0.0235 0.005,0.0469 0.008,0.0703 v 0.0215 h 0.002 c 0.0496,2.09647 1.76037,3.77177 3.85742,3.77734 0.058,-10e-4 0.11595,-0.004 0.17383,-0.008 v 0.0176 h 70.146479 22.4961 v -0.0293 c 0.0558,0.008 0.11184,0.0142 0.16797,0.0195 2.13695,2e-4 3.86934,-1.73219 3.86914,-3.86914 -9.4e-4,-0.0319 -0.002,-0.0638 -0.004,-0.0957 v -16.60742 c 0.002,-0.0319 0.003,-0.0638 0.004,-0.0957 -9.4e-4,-0.0319 -0.002,-0.0638 -0.004,-0.0957 v -0.28906 h -0.008 v -12.92774 c 7.5e-4,-0.015 8.5e-4,-0.0299 0.002,-0.0449 h 0.006 v -17.27519 h -0.0254 c -0.17938,-1.74548 -1.51101,-3.15167 -3.24414,-3.42578 v -0.0488 h -11.82227 v -10.01367 c 0.002,-0.0384 0.003,-0.0768 0.004,-0.11524 -7.6e-4,-0.0384 -0.002,-0.0768 -0.004,-0.11523 v -12.69336 h -0.002 v -3.81641 c 0.003,-0.0579 0.005,-0.11584 0.006,-0.17382 -7e-4,-0.058 -0.003,-0.11594 -0.006,-0.17383 v -0.21289 h -0.0156 c -0.17623,-1.75232 -1.51373,-3.16449 -3.25391,-3.43555 v -0.0391 h -0.36328 c -0.0767,-0.005 -0.15358,-0.008 -0.23047,-0.008 -0.0228,0.002 -0.0456,0.005 -0.0684,0.008 h -7.87109 -62.021488 -7.70117 c -0.0767,-0.005 -0.15358,-0.008 -0.23047,-0.008 z m 91.906249,0 c -0.007,0 -0.0126,0.004 -0.0195,0.004 h -0.58206 v 0.11719 c -1.70581,0.27847 -3.00482,1.62143 -3.1875,3.35742 h -0.082 v 17.27539 h 0.0215 c 0.0483,2.09405 1.74392,3.78236 3.84961,3.7832 0.0575,1e-5 0.10518,-0.0307 0.16211,-0.0332 v 0.0371 l 10.97461,0.008 v 49.63477 7.35742 h 0.0234 c -0.002,0.0569 -0.0332,0.10459 -0.0332,0.16211 -2e-4,2.11128 1.6951,3.81489 3.79687,3.85547 v 0.0156 h 17.27539 v -0.0273 l 14.03516,0.0137 v 0.0137 h 14.33984 l 2.02734,0.002 v -0.002 h 0.90821 v -0.082 c 1.73544,-0.18374 3.07774,-1.48183 3.35547,-3.1875 h 0.11914 v -0.59179 c 1e-5,-0.003 0.002,-0.006 0.002,-0.01 0,-0.003 -0.002,-0.006 -0.002,-0.01 v -7.86524 -62.07812 -7.85157 c 8e-5,-0.0104 0.006,-0.0189 0.006,-0.0293 0,-0.0104 -0.006,-0.0189 -0.006,-0.0293 v -0.56641 h -0.11524 c -0.2757,-1.70989 -1.61995,-3.01309 -3.35937,-3.19531 v -0.0742 h -0.36914 c -0.007,-3e-5 -0.0126,-0.004 -0.0195,-0.004 -0.007,0 -0.0126,0.004 -0.0195,0.004 h -16.77539 c -0.007,-3e-5 -0.0126,-0.004 -0.0195,-0.004 -0.007,0 -0.0126,0.004 -0.0195,0.004 h -0.0527 v 0.01 c -2.10082,0.0417 -3.79512,1.74487 -3.79492,3.85547 -1e-5,0.0595 0.0306,0.10913 0.0332,0.16796 h -0.0254 v 7.35743 49.64453 h -6.77344 v -49.28906 -7.8125 c 4.4e-4,-0.0241 0.0137,-0.0441 0.0137,-0.0684 0,-0.0242 -0.0132,-0.0442 -0.0137,-0.0684 v -0.52735 h -0.10742 c -0.27614,-1.71256 -1.62397,-3.01838 -3.36719,-3.19726 v -0.0723 h -0.36133 c -0.007,-3e-5 -0.0126,-0.004 -0.0195,-0.004 -0.007,0 -0.0126,0.004 -0.0195,0.004 h -5.6543 -26.125 c -0.007,-3e-5 -0.0126,-0.004 -0.0195,-0.004 z m 77.01953,0 c -0.007,0 -0.0126,0.004 -0.0195,0.004 h -0.58008 v 0.11719 c -1.7067,0.27774 -3.0067,1.62078 -3.18945,3.35742 h -0.0801 v 17.27539 h 0.0195 c 0.0483,2.09405 1.74395,3.78236 3.84961,3.7832 0.0582,1e-5 0.10649,-0.0307 0.16407,-0.0332 v 0.0371 h 2.14843 v 0.002 h 6.09573 6.0957 v -0.002 h 2.14844 v -0.0391 c 0.0597,0.003 0.10953,0.0351 0.16992,0.0351 2.10644,2e-4 3.80326,-1.68841 3.85156,-3.7832 h 0.0117 v -0.0566 c 8e-5,-0.0104 0.006,-0.0189 0.006,-0.0293 0,-0.0104 -0.006,-0.0189 -0.006,-0.0293 v -16.74024 c 8e-5,-0.0104 0.006,-0.0189 0.006,-0.0293 0,-0.0104 -0.006,-0.0189 -0.006,-0.0293 v -0.36133 h -0.0723 c -0.18312,-1.73912 -1.48713,-3.08255 -3.19727,-3.35742 v -0.11719 h -0.57422 c -0.007,-3e-5 -0.0126,-0.004 -0.0195,-0.004 -0.007,0 -0.0126,0.004 -0.0195,0.004 l -8.39453,0.002 -8.38868,-0.002 c -0.007,-3e-5 -0.0126,-0.004 -0.0195,-0.004 z m 183.91602,0 c -0.007,0 -0.0126,0.004 -0.0195,0.004 h -0.0352 v 0.008 c -2.10933,0.032 -3.8127,1.74068 -3.8125,3.85743 0,0.0595 0.0305,0.10913 0.0332,0.16796 h -0.008 v 7.35743 62.78906 7.35742 h 0.008 c -0.002,0.0569 -0.0332,0.10459 -0.0332,0.16211 -2e-4,2.11675 1.70317,3.82544 3.8125,3.85742 v 0.0137 h 17.27539 v -0.0801 c 1.73857,-0.18102 3.08324,-1.48159 3.36133,-3.18946 h 0.11328 v -0.5625 c 1.5e-4,-0.0138 0.008,-0.0252 0.008,-0.0391 10e-6,-0.0138 -0.008,-0.0252 -0.008,-0.0391 v -7.83594 -49.31445 l 26.86328,0.0273 v -0.041 c 0.063,0.003 0.11591,0.0371 0.17969,0.0371 2.10645,2e-4 3.80327,-1.6884 3.85156,-3.7832 h 0.002 v -0.008 c 5.7e-4,-0.0276 0.0156,-0.0504 0.0156,-0.0781 0,-0.0277 -0.0151,-0.0506 -0.0156,-0.0781 v -16.64258 c 5.7e-4,-0.0276 0.0156,-0.0504 0.0156,-0.0781 0,-0.0277 -0.0151,-0.0506 -0.0156,-0.0781 v -0.3125 h -0.0625 c -0.18345,-1.74267 -1.49194,-3.09043 -3.20703,-3.36133 v -0.11328 h -0.56446 c -0.007,-3e-5 -0.0126,-0.004 -0.0195,-0.004 -0.007,0 -0.0126,0.004 -0.0195,0.004 h -30.49805 -17.20117 c -0.007,-3e-5 -0.0126,-0.004 -0.0195,-0.004 z m -40.89649,9.4121 6.40821,0.004 v 21.35352 h -6.40821 z m -61.80468,15.10352 6.74218,0.006 v 3.77344 32.74414 h -6.74218 z m -214.509769,0.0293 h 21.58985 v 6.25195 h -21.58985 z m 133.294919,6.24804 v 0.002 0.002 c -0.007,0 -0.0126,0.004 -0.0195,0.004 h -0.041 v 0.008 c -2.10657,0.0351 -3.80684,1.74268 -3.80664,3.85742 -1e-5,0.0595 0.0306,0.10911 0.0332,0.16797 h -0.0137 l -0.008,12.61328 -0.0137,-0.004 0.006,10.74414 -0.006,10.74218 0.0137,-0.004 0.008,12.61523 h 0.0137 c -0.002,0.0563 -0.0332,0.1033 -0.0332,0.16016 -2e-4,2.11474 1.70007,3.82228 3.80664,3.85742 v 0.0156 h 17.27539 v -0.084 c 1.73479,-0.18367 3.07701,-1.4808 3.35547,-3.18555 h 0.11914 v -0.59375 c 1e-5,-0.003 0.002,-0.006 0.002,-0.01 0,-0.003 -0.002,-0.006 -0.002,-0.01 v -20.875 -26.14062 c 1e-5,-0.003 0.002,-0.006 0.002,-0.01 0,-0.003 -0.002,-0.006 -0.002,-0.01 v -0.58594 h -0.11719 c -0.27539,-1.7086 -1.61991,-3.0094 -3.35742,-3.19336 v -0.0762 h -0.37305 c -0.007,-4e-5 -0.0126,-0.008 -0.0195,-0.008 -0.007,0 -0.0126,0.008 -0.0195,0.008 h -16.78321 c -0.007,-4e-5 -0.0126,-0.008 -0.0195,-0.008 z M 73.341401,273.23242 h 36.673829 v 5.71094 h -2.3418 -34.332029 z" />
  <path
     id="path3119"
     style="display:inline;fill:#98cffb"
     d="m 391.48203,93.339841 c -6.31748,0.0295 -12.11719,1.64063 -18.12696,4.6875 -7.60096,3.853819 -8.27857,4.007979 -7.98632,12.605469 0.66689,19.63221 0.86649,20.44104 1.08203,30.0332 0.30899,13.75167 0.45413,15.76186 0.75,29.45313 0.005,0.21465 1.83548,-1.08921 3.50781,-2.18164 5.30276,-3.46424 9.96238,-4.18984 15.62891,-3.69531 0.006,5.3e-4 0.0115,-5.4e-4 0.0176,0 l 4.59766,-9.46094 c -5.18695,-3.47564 -8.30337,-9.30518 -8.31253,-15.54883 0,-10.3553 8.3947,-18.75 18.75,-18.75 10.3553,0 18.75,8.3947 18.75,18.75 0,10.3553 -8.3947,18.75 -18.75,18.75 -1.93901,-0.009 -3.86494,-0.31862 -5.70898,-0.91797 l -3.94727,8.12109 c 0.004,0.008 0.005,0.0142 0.004,0.0195 2.51241,0.72369 5.38625,1.77241 7.71484,2.85351 3.575,1.65978 7.73323,4.14415 9.66406,5.45899 l 4.22656,2.87695 0.83985,-3.92383 c 0.21206,-0.99119 1.53612,-6.23829 2.92969,-11.23828 1.14489,-4.10775 4.72866,-16.99274 7.34765,-27.5 1.14723,-4.60205 4.53957,-16.747 7.4375,-26.27148 -4.30849,-2.3276 -5.93013,-3.17086 -11.93554,-6.07618 -11.3806,-5.505109 -20.35845,-8.082879 -28.48047,-8.044919 z m 41.91015,21.025389 c -0.44154,-0.0362 -0.8921,0.086 -1.36718,0.42383 -0.63794,0.4537 -1.77525,4.85588 -3.00977,9.47656 -3.08224,11.53706 -4.42713,16.3506 -7.32227,26.9668 -2.90481,10.6533 -5.23857,19.90922 -6.16015,22.82227 l -1.71094,5.41211 -3.98047,-2.7129 c -5.40517,-3.68383 -12.59881,-7.94833 -18.97265,-9.7871 l -1.16211,2.38867 v 0.002 h 0.002 c 6.34748,1.78075 12.69945,5.50909 18.45703,9.86133 2.24035,1.71875 3.32431,2.79985 5.24609,4.63476 0.59641,-1.30187 0.89825,-1.63359 1.27149,-2.87109 0.37325,-1.2375 1.28779,-3.6 2.03125,-5.25 0.74345,-1.65 2.69391,-6.6 4.33398,-11 1.64007,-4.4 6.29287,-16.34994 10.47266,-26.5 l 7.79883,-18.94141 -1.91992,-1.86718 c -1.45482,-1.4143 -2.68318,-2.94987 -4.00782,-3.0586 z m -42.52343,52.60157 0.002,-0.004 c -0.002,7.3e-4 -0.004,4e-4 -0.006,0.002 10e-4,3.9e-4 0.002,0.002 0.004,0.002 z m 10.52148,-42.10938 a 14.375,14.375 0 0 0 -14.375,14.375 14.375,14.375 0 0 0 14.375,14.375 14.375,14.375 0 0 0 14.375,-14.375 14.375,14.375 0 0 0 -14.375,-14.375 z m -272.42578,2.125 v 47.41992 h 2.09375 l 0.98828,1.08594 1.09766,1.20508 2.00976,2.20898 0.0469,0.0508 0.004,-0.004 c 0.51535,0.51254 1.34164,0.53235 1.88086,0.0449 0.53624,-0.49084 0.59459,-1.31549 0.13281,-1.87695 l 0.004,-0.004 -0.0469,-0.0527 -1.96289,-2.15429 -0.0449,-0.0547 -0.41015,-0.44922 h 2.08203 l 0.98828,1.08594 1.09766,1.20508 2.00976,2.20898 0.0469,0.0508 0.004,-0.004 c 0.51535,0.51254 1.34164,0.53235 1.88086,0.0449 0.53624,-0.49084 0.59456,-1.31549 0.13282,-1.87695 l 0.004,-0.004 -0.0469,-0.0527 -1.96289,-2.15429 -0.0449,-0.0547 -0.41015,-0.44922 h 2.08203 l 0.98828,1.08594 1.09766,1.20508 2.00976,2.20898 0.0449,0.0508 0.004,-0.004 c 0.51535,0.51254 1.34164,0.53235 1.88086,0.0449 0.53683,-0.4903 0.59604,-1.31499 0.13476,-1.87695 l 0.004,-0.004 -0.0469,-0.0527 -1.96289,-2.15429 -0.0469,-0.0547 -0.4082,-0.44922 h 2.08008 l 0.98828,1.08594 1.09961,1.20508 2.00781,2.20898 0.0469,0.0508 0.004,-0.004 c 0.51535,0.51254 1.34164,0.53235 1.88086,0.0449 0.53624,-0.49084 0.59459,-1.31549 0.13281,-1.87695 l 0.004,-0.004 -0.0449,-0.0527 -1.96289,-2.15429 -0.0469,-0.0547 -0.4082,-0.44922 h 2.16992 l 0.98828,1.08594 1.09961,1.20508 2.00781,2.20898 0.0469,0.0508 0.004,-0.004 c 0.51535,0.51254 1.34164,0.53235 1.88086,0.0449 0.53624,-0.49084 0.5946,-1.31549 0.13282,-1.87695 l 0.004,-0.004 -0.043,-0.0527 -1.96289,-2.15429 -0.0488,-0.0547 -0.4082,-0.44922 h 3.29297 v -3.57617 l 0.41406,0.45508 2.00977,2.21094 0.0488,0.0508 0.0117,-0.004 c 0.51582,0.51199 1.34213,0.53076 1.88085,0.043 0.53624,-0.49084 0.5946,-1.31549 0.13282,-1.87695 l 0.0117,-0.004 -0.0469,-0.0508 -1.96289,-2.15625 -0.0449,-0.0527 -1.09961,-1.20703 -1.33789,-1.46875 v -2.13867 l 0.41406,0.45508 2.00977,2.20898 0.0469,0.0508 0.0117,-0.0117 c 0.51535,0.51254 1.34164,0.53235 1.88086,0.0449 0.53624,-0.49084 0.59459,-1.3155 0.13281,-1.87696 l 0.0117,-0.0117 -0.0469,-0.0508 -1.9629,-2.15624 -0.0449,-0.0527 -1.09961,-1.20508 -1.33789,-1.46875 v -2.13867 l 0.41407,0.45508 2.00976,2.20898 0.0469,0.0508 0.0117,-0.004 c 0.51586,0.51199 1.34214,0.53077 1.88086,0.043 0.53625,-0.49084 0.5946,-1.3155 0.13282,-1.87696 l 0.0117,-0.0117 -0.0488,-0.0508 -1.96289,-2.15625 -0.043,-0.0527 -1.09961,-1.20508 -1.33789,-1.46875 v -2.14062 l 0.41406,0.45507 2.00781,2.20899 0.0488,0.0527 0.004,-0.0117 c 0.51586,0.51199 1.34214,0.53077 1.88086,0.043 0.53624,-0.49084 0.59459,-1.31549 0.13281,-1.87695 l 0.0117,-0.004 -0.0469,-0.0508 -1.96289,-2.15625 -0.0449,-0.0527 -1.09961,-1.20508 -1.33789,-1.46875 v -2.13867 l 0.41406,0.45508 2.00977,2.20898 0.0469,0.0508 0.0117,-0.0117 c 0.51586,0.51199 1.34214,0.53077 1.88086,0.043 0.53624,-0.49084 0.59459,-1.31549 0.13281,-1.87695 l 0.0117,-0.004 -0.0469,-0.0527 -1.96289,-2.15625 -0.0449,-0.0508 -1.09961,-1.20508 -1.33789,-1.46875 v -2.14063 l 0.41406,0.45508 2.00976,2.21094 0.0469,0.0508 0.0117,-0.0117 c 0.51586,0.51199 1.34214,0.53077 1.88086,0.043 0.53624,-0.49084 0.59459,-1.31549 0.13281,-1.87695 l 0.006,-0.004 -0.0488,-0.0527 -1.96289,-2.15625 -0.043,-0.0508 -1.09961,-1.20704 -1.3418,-1.46679 v -2.125 l 0.41602,0.45508 2.00977,2.20898 0.0469,0.0508 0.004,-0.0117 c 0.51586,0.51199 1.34214,0.53076 1.88086,0.043 0.53624,-0.49084 0.59459,-1.31549 0.13281,-1.87695 l 0.004,-0.0117 -0.0469,-0.0508 -1.96289,-2.15625 -0.0449,-0.0508 -1.09961,-1.20508 -1.33789,-1.46875 v -2.54206 z m 310.09766,1.625 c -0.29068,0.0339 -0.62452,0.16826 -1.04102,0.42969 -0.82846,0.52 -3.22907,6.98866 -13.06641,31.69531 -3.28445,8.24955 -7.11531,17.56961 -8.51172,20.70898 l -2.53906,5.70899 c -2.00013,-1.93078 -4.40451,-4.23582 -6.50976,-6.04297 -3.46278,-2.97183 -10.91113,-7.96564 -18.63672,-9.77344 -0.005,0.003 -0.0107,0.007 -0.0156,0.01 l -1.16601,2.39844 0.006,0.006 0.002,0.002 c 9.63532,2.36647 17.73797,8.99465 25.69531,17.10156 8.95547,-17.65149 10.6571,-20.79827 15.5293,-30.22461 7.18626,-13.90401 8.84589,-17.26735 10.95508,-20.75195 l 4.58398,-7.57617 -2.67578,-2.04493 c -1.24322,-0.94973 -1.7378,-1.74813 -2.60937,-1.64648 z m -0.99219,21.625 c -9.00535,14.46413 -16.71878,29.99852 -25.86719,44.5625 -1.89476,-3.25331 -8.22587,-9.32792 -11.86523,-11.58203 -2.59477,-1.60692 -6.65359,-5.33192 -13.95118,-6.9707 -0.002,-4.4e-4 -0.004,4.3e-4 -0.006,0 -0.006,4.5e-4 -0.0129,9.2e-4 -0.0195,0 l -3.03711,6.24804 c 1.71066,0.46572 3.62266,1.27863 5.75391,2.55469 3.3348,1.99668 12.3506,8.33707 16.24609,20.43555 26.50719,-32.17032 26.29774,-32.0852 38.92383,-48.14258 -0.2731,-0.29178 -0.5314,-0.59376 -0.92578,-1.11719 l -0.002,-0.002 -1.78907,-2.54102 c -1.44229,-1.89264 -3.00296,-3.44526 -3.46077,-3.44526 z m -206.50391,5.1875 c 0.011,-0.45774 -4.20741,2.6281 -6.72851,4.84766 -10.29612,9.06295 -13.3296,24.25991 -7.24219,36.29101 3.12184,6.17021 9.03853,12.25245 13.39258,13.76953 l 2.65234,0.92383 -0.5,44.43945 -0.5,44.4375 -4.93164,3.50586 c -12.07207,8.58166 -16.51421,23.88913 -10.72852,36.96875 3.7586,8.49695 10.31987,13.98978 21.16016,17.7168 1.375,0.47267 5.1998,0.7074 8.5,0.52149 16.5894,-0.9368 28.81872,-13.67023 28.91602,-30.10938 0.0653,-11.03468 -6.29739,-22.53909 -14.45704,-26.13867 l -3.95898,-1.7461 v -44.71289 -44.71289 l 4.4668,-2.61718 c 7.16576,-4.19968 12.89167,-13.2592 14.08984,-22.29102 1.23427,-9.3039 -4.14171,-21.81336 -11.92773,-27.75195 -1.82434,-1.39149 -4.78216,-3.63987 -4.78516,-3.2793 -0.0518,6.02988 -0.002,7.99113 0.15625,29.51367 l -6.75,4.02344 -6.75,4.02344 -7,-3.74414 -7,-3.74414 c -0.1834,-24.84154 -0.17446,-26.01651 -0.0742,-30.13477 z m 153.27539,10.62695 c -5.16034,0.11268 -7.82401,-0.009 -13.70117,4.80078 0.0415,0.34101 -0.2189,1.00679 -0.125,2.10743 2.4992,-2.4965 5.76595,-4.57556 10.56641,-4.72266 0.91987,-0.0282 1.84807,0.0348 2.77734,0.11523 l 1.0957,-2.25585 c -0.19944,-0.004 -0.41793,-0.0492 -0.61328,-0.0449 z m -0.48242,2.30078 -0.004,0.006 c 0.004,-0.002 0.009,-0.002 0.0137,-0.004 -0.003,-6.1e-4 -0.006,-0.002 -0.01,-0.002 z m -1.13281,2.33008 c -3.7608,0.0121 -7.38017,1.06421 -10.40625,3.85742 -0.10724,1.12689 -0.1707,1.62515 -0.41992,3.3125 1.8681,-1.81391 4.88733,-4.32729 9.60351,-4.67187 l 0.002,-0.002 c 0.003,-0.002 0.007,-0.004 0.01,-0.006 l 0.002,-0.002 0.002,-0.002 z m -2.53321,5.21289 -0.002,0.004 c 0.002,-2.3e-4 0.004,2.1e-4 0.006,0 -10e-4,-0.001 -0.003,-0.002 -0.004,-0.004 z m -0.002,0.004 c -4.21222,0.52634 -6.37695,2.72656 -6.37695,2.72656 0,0 -1.043,4.57029 -1.29883,6.11133 1.02725,-1.05232 2.55609,-2.0403 4.58789,-2.48438 z m -146.05073,135.34366 10.5,0.0215 10.5,0.0215 4.84375,8.63672 4.8418,8.63867 -2.28321,4.08789 c -1.2555,2.2484 -3.46522,6.11289 -4.91015,8.58789 l -2.62696,4.5 -10.43359,0.26758 -10.43164,0.26758 -2.31445,-4.26758 c -1.27258,-2.34695 -3.44609,-6.3402 -4.83008,-8.87305 l -2.51563,-4.60547 4.83008,-8.64062 z"
     inkscape:label="Icons" />
</svg>
